<svg xmlns="http://www.w3.org/2000/svg" width="52" height="52" fill="none" viewBox="0 0 52 52"><path fill="#244CC8" d="M49.5421 17.6072L35.879 25.7514C34.8703 26.3527 34.4662 27.5897 34.8731 28.6517C34.2639 28.9073 33.5821 28.9193 32.9576 28.678L31.1901 27.9836C30.485 27.7064 29.7238 27.6582 28.9891 27.8442L26.281 28.5296C26.176 28.5561 26.0731 28.5872 25.9725 28.6224C24.318 27.6779 23.3325 27.3955 21.5866 28.0706L20.0192 28.6765C19.2785 28.9628 18.4618 28.8949 17.777 28.4893L17.2534 28.1806C17.4036 27.2439 16.9832 26.2654 16.121 25.7515L2.45791 17.6072C1.37455 16.9617 0 17.7409 0 19.0036V34.2555C0 35.3087 0.561945 36.2978 1.46656 36.837L7.43214 40.393C8.54181 41.0543 9.96826 40.7114 10.659 39.633L10.914 39.7835L10.1405 40.861C9.27652 42.0642 9.55124 43.7372 10.7547 44.6013C11.3495 45.0284 12.0745 45.1895 12.7848 45.0633C12.8936 45.7821 13.2807 46.4148 13.8717 46.8392C14.4649 47.265 15.1945 47.4253 15.9029 47.2996C16.0072 47.9897 16.3784 48.6387 16.9888 49.0769C17.8112 49.6673 18.831 49.7154 19.6588 49.3418C19.8409 49.8465 20.1705 50.2844 20.6158 50.6041C21.7726 51.4345 23.3766 51.2103 24.2637 50.1112L26.2674 51.2983C26.6951 51.5517 27.1651 51.6721 27.6294 51.6721C28.546 51.6721 29.4402 51.2025 29.9403 50.3583C30.1515 50.0019 30.2704 49.6159 30.3041 49.2284L30.3821 49.2746C30.9983 49.6396 31.7198 49.743 32.4133 49.5653C33.107 49.3878 33.6901 48.9506 34.055 48.3347C34.2807 47.9538 34.4062 47.5327 34.4273 47.1029C34.8738 47.2276 35.3473 47.2334 35.8085 47.1155C36.5023 46.938 37.0853 46.5009 37.4503 45.8849C37.6626 45.5266 37.7864 45.1326 37.8177 44.7291C39.0335 45.2437 40.4764 44.7921 41.1673 43.6259C41.7741 42.6018 41.6186 41.3338 40.8708 40.4854L41.6561 40.0266C42.4006 40.7783 43.5991 40.9703 44.568 40.3929L46.0101 39.5332C46.3716 39.3177 46.4899 38.8501 46.2745 38.4889C46.059 38.1273 45.5911 38.0092 45.2302 38.2245L43.7881 39.0842C43.448 39.2871 43.0341 39.2252 42.7673 38.9812C42.7623 38.9383 36.3593 28.2378 36.3593 28.2378C36.1181 27.8306 36.2525 27.3023 36.659 27.06L50.3221 18.9158C50.3918 18.8747 50.4766 18.9237 50.4766 19.0035V34.2554C50.4766 34.7746 50.1994 35.2625 49.7534 35.5282L48.3134 36.3867C47.9519 36.6021 47.8336 37.0697 48.049 37.4309C48.2643 37.7924 48.7322 37.9103 49.0933 37.6953L50.5333 36.8369C51.438 36.2977 51.9999 35.3086 51.9999 34.2554V19.0036C52 17.7426 50.6268 16.9606 49.5421 17.6072ZM29.3627 29.321C29.7868 29.2138 30.226 29.2416 30.6331 29.4015L32.4044 30.0974C33.4617 30.5062 34.6164 30.4613 35.6237 29.9855L40.8175 38.7523L39.9758 39.2441C39.8229 39.3347 39.6762 39.435 39.5367 39.5445L28.4287 32.9664C28.1931 32.827 27.9009 32.8246 27.6634 32.9601C27.4256 33.0956 27.2789 33.3482 27.2789 33.6219V33.775C27.2789 34.3168 27.0678 34.8262 26.6845 35.2092C26.3015 35.592 25.7925 35.8027 25.2513 35.8027C25.1633 35.7994 25.0858 35.7288 25.0857 35.6371V32.022C25.0857 31.2344 25.5266 30.5314 26.2013 30.1792C26.2348 30.1657 26.2675 30.1498 26.299 30.1315C26.4119 30.0799 26.5309 30.0379 26.6547 30.0065L29.3627 29.321ZM8.86509 39.1791C8.64195 39.2356 8.40998 39.2024 8.21214 39.0842L2.24656 35.5283C1.8005 35.2625 1.52344 34.7747 1.52344 34.2555V19.0036C1.52344 18.9874 1.52344 18.9442 1.57513 18.9149C1.59443 18.9039 1.6118 18.9 1.62662 18.9C1.65141 18.9 1.66918 18.9106 1.67791 18.9158L15.3411 27.06C15.7476 27.3023 15.8821 27.8306 15.6408 28.2379L9.39311 38.7838C9.2758 38.9819 9.08822 39.1223 8.86509 39.1791ZM12.5052 43.5656C12.2003 43.6158 11.8942 43.544 11.643 43.3638C11.3921 43.1836 11.2262 42.9165 11.1761 42.6116C11.1261 42.3066 11.1977 42.0005 11.3779 41.7496L12.4647 40.2358C12.4912 40.1988 12.5196 40.164 12.5495 40.1312C12.572 40.1109 12.5934 40.0891 12.6138 40.066C13.0085 39.6962 13.6235 39.6437 14.0791 39.9707C14.5973 40.3427 14.7162 41.067 14.3442 41.5851C14.3436 41.5859 14.343 41.5869 14.3424 41.5877L13.2574 43.0989C13.0773 43.3498 12.8101 43.5155 12.5052 43.5656ZM14.7601 45.6015C14.5091 45.4213 14.3433 45.1542 14.2932 44.8493C14.2431 44.5443 14.3147 44.2382 14.495 43.9873L15.5817 42.4735C15.5817 42.4735 15.5817 42.4734 15.5818 42.4734L16.7811 40.8029C16.9612 40.5518 17.2283 40.3861 17.5333 40.3359C17.5968 40.3254 17.6602 40.3204 17.7233 40.3204C17.9633 40.3204 18.1966 40.395 18.3955 40.5378C18.9137 40.9097 19.0326 41.634 18.6606 42.1522L16.3744 45.3366C16.0024 45.8547 15.2781 45.9732 14.7601 45.6015ZM18.7392 48.041C18.4344 48.0911 18.1282 48.0194 17.8771 47.8392C17.359 47.4673 17.24 46.7431 17.6121 46.2249C17.6127 46.224 17.6133 46.2232 17.6139 46.2223L19.8982 43.0404C20.2701 42.5221 20.9944 42.4035 21.5127 42.7753C21.7636 42.9555 21.9295 43.2226 21.9795 43.5276C22.0296 43.8325 21.9579 44.1387 21.7777 44.3897L19.4916 47.5741C19.3113 47.8251 19.0441 47.991 18.7392 48.041ZM21.5041 49.3664C21.2532 49.1863 21.0873 48.9192 21.0372 48.6142C20.9872 48.3093 21.0588 48.0032 21.2391 47.7522C21.2399 47.7511 21.2406 47.7501 21.2413 47.749L22.0001 46.6921C22.3724 46.1749 23.0958 46.0564 23.6136 46.4281C24.1318 46.8002 24.2507 47.5244 23.8787 48.0426L23.444 48.6481C23.4394 48.6542 23.4349 48.6605 23.4306 48.6668L23.1185 49.1016C22.7466 49.6195 22.0225 49.7386 21.5041 49.3664ZM39.8567 42.8495C39.5314 43.3984 38.8197 43.5805 38.2712 43.2552L36.5102 42.2121C36.5094 42.2117 36.5087 42.2112 36.5079 42.2108L31.0539 38.9796C30.6919 38.7652 30.2247 38.8848 30.0104 39.2466C29.796 39.6086 29.9154 40.0759 30.2774 40.2902L35.7337 43.5227C35.7337 43.5227 35.7337 43.5227 35.7338 43.5228L35.7346 43.5232C36.283 43.8487 36.4647 44.5597 36.1397 45.1084C35.9821 45.3744 35.7304 45.5631 35.4309 45.6397C35.1314 45.7163 34.8199 45.6719 34.5539 45.5142L33.1185 44.6639C33.1173 44.6632 33.1163 44.6625 33.1151 44.6618C33.1143 44.6614 33.1135 44.6608 33.1128 44.6604L29.0949 42.2801C28.7328 42.0656 28.2658 42.1853 28.0514 42.5471C27.837 42.9091 27.9564 43.3764 28.3184 43.5907L32.3364 45.9711C32.3372 45.9716 32.338 45.9721 32.3387 45.9725C32.6046 46.13 32.7934 46.3817 32.87 46.6812C32.9467 46.9807 32.902 47.2922 32.7445 47.5582C32.5869 47.8242 32.3353 48.0129 32.0357 48.0895C31.7362 48.1662 31.4247 48.1216 31.1588 47.9641L29.0045 46.6878C29.0031 46.687 29.0018 46.6861 29.0005 46.6853L27.425 45.752C27.0633 45.5378 26.596 45.6572 26.3815 46.0192C26.1672 46.3811 26.2866 46.8484 26.6487 47.0628L28.224 47.9961L28.2261 47.9973C28.7737 48.3231 28.9549 49.0333 28.6301 49.5817C28.3046 50.1308 27.5932 50.3127 27.0444 49.9877L25.1588 48.8706C25.9691 47.6747 25.683 46.0381 24.5025 45.1905C24.1416 44.9315 23.7377 44.7753 23.3258 44.716C23.508 44.2656 23.5638 43.7726 23.4831 43.2809C23.3671 42.5744 22.9829 41.9554 22.4013 41.5379C21.791 41.0999 21.0574 40.9556 20.3702 41.0774C20.2659 40.3874 19.8947 39.7383 19.2843 39.3002C18.7026 38.8826 17.9935 38.7167 17.2868 38.8326C16.6968 38.9295 16.1678 39.2134 15.7663 39.6433C15.5792 39.2933 15.3114 38.9797 14.9679 38.733C14.0576 38.0796 12.8727 38.08 11.9772 38.6419L11.4371 38.3231L16.6196 29.5753L17.0023 29.8008C17.6459 30.1822 18.3638 30.3757 19.0871 30.3757C19.5861 30.3757 20.0876 30.2836 20.5689 30.0975L22.1363 29.4916C23.0732 29.1296 23.5763 29.1124 24.5223 29.5726C23.9209 30.2215 23.5626 31.0873 23.5626 32.022V35.6371C23.5626 36.5677 24.3191 37.3254 25.2491 37.3261H25.2515C26.1996 37.3261 27.091 36.957 27.7617 36.2868C28.1688 35.8801 28.4649 35.3918 28.635 34.859L39.2447 41.1419C39.2797 41.1627 39.3159 41.1803 39.3528 41.1949C39.3833 41.2201 39.416 41.2433 39.4511 41.2641C39.9998 41.5893 40.1819 42.3005 39.8567 42.8495Z"/><path fill="#244CC8" d="M17.2685 20.1755H34.7317C36.3128 20.1755 37.5991 18.8892 37.5991 17.3081V6.91807C37.5991 5.33694 36.3128 4.05065 34.7317 4.05065H30.5278V2.84369C30.5278 1.45654 29.3994 0.327881 28.0124 0.327881H23.9876C22.6006 0.327881 21.4722 1.45644 21.4722 2.84369V4.05065H17.2683C15.6872 4.05065 14.4009 5.33694 14.4009 6.91807V12.6416C14.4009 13.0624 14.7419 13.4033 15.1626 13.4033C15.5833 13.4033 15.9243 13.0624 15.9243 12.6416V11.2259C16.735 11.9534 17.8059 12.3966 18.9782 12.3966H19.5744V13.2344C19.5744 13.6552 19.9154 13.9962 20.3361 13.9962C20.7568 13.9962 21.0978 13.6552 21.0978 13.2344V12.3966H30.902V13.2344C30.902 13.6552 31.2429 13.9962 31.6637 13.9962C32.0844 13.9962 32.4254 13.6552 32.4254 13.2344V12.3966H33.0215C34.1939 12.3966 35.2648 11.9534 36.0754 11.2259V17.308C36.0754 18.0491 35.4725 18.652 34.7315 18.652H17.2685C16.5274 18.652 15.9245 18.049 15.9245 17.308V16.2026C15.9245 15.7818 15.5835 15.4409 15.1628 15.4409C14.7421 15.4409 14.4011 15.7818 14.4011 16.2026V17.308C14.4011 18.8892 15.6874 20.1755 17.2685 20.1755ZM22.9958 2.84369C22.9958 2.29647 23.4408 1.85132 23.9878 1.85132H28.0126C28.5596 1.85132 29.0046 2.29647 29.0046 2.84369V4.05065H22.9959V2.84369H22.9958ZM33.0218 10.8731H32.4257V10.0352C32.4257 9.61445 32.0848 9.27351 31.664 9.27351C31.2432 9.27351 30.9023 9.61445 30.9023 10.0352V10.8731H21.0981V10.0352C21.0981 9.61445 20.7571 9.27351 20.3364 9.27351C19.9157 9.27351 19.5747 9.61445 19.5747 10.0352V10.8731H18.9785C17.2946 10.8731 15.9246 9.50314 15.9246 7.81923V6.91807C15.9246 6.17697 16.5275 5.57409 17.2686 5.57409H34.7318C35.4729 5.57409 36.0758 6.17707 36.0758 6.91807V7.81923C36.0758 9.50314 34.7058 10.8731 33.0218 10.8731Z"/></svg>