<svg xmlns="http://www.w3.org/2000/svg" width="48" height="48" fill="none" viewBox="0 0 48 48"><path fill="#244CC8" d="M11.2536 9.2919C11.2536 8.50497 10.6134 7.86475 9.82655 7.86475H6.8002C6.01327 7.86475 5.37305 8.50497 5.37305 9.2919V12.3183C5.37305 13.1053 6.01336 13.7455 6.8002 13.7455H9.82664C10.6136 13.7455 11.2537 13.1053 11.2537 12.3183V9.2919H11.2536ZM9.84755 12.3183C9.84755 12.3299 9.83808 12.3393 9.82655 12.3393H6.8002C6.78858 12.3393 6.77911 12.3298 6.77911 12.3183V9.2919C6.77911 9.28028 6.78858 9.2709 6.8002 9.2709H9.82664C9.83817 9.2709 9.84764 9.28037 9.84764 9.2919V12.3183H9.84755Z"/><path fill="#244CC8" d="M18.7781 9.2919C18.7781 8.50497 18.1379 7.86475 17.3511 7.86475H14.3246C13.5377 7.86475 12.8975 8.50497 12.8975 9.2919V12.3183C12.8975 13.1053 13.5378 13.7455 14.3246 13.7455H17.3511C18.138 13.7455 18.7781 13.1053 18.7781 12.3183V9.2919ZM17.3721 12.3183C17.3721 12.3299 17.3626 12.3393 17.3511 12.3393H14.3246C14.313 12.3393 14.3035 12.3298 14.3035 12.3183V9.2919C14.3035 9.28028 14.313 9.2709 14.3246 9.2709H17.3511C17.3626 9.2709 17.3721 9.28037 17.3721 9.2919V12.3183Z"/><path fill="#244CC8" d="M11.2536 17.0683C11.2536 16.2813 10.6134 15.6411 9.82655 15.6411H6.8002C6.01327 15.6411 5.37305 16.2813 5.37305 17.0683V20.0947C5.37305 20.8816 6.01336 21.5219 6.8002 21.5219H9.82664C10.6136 21.5219 11.2537 20.8816 11.2537 20.0947V17.0683H11.2536ZM9.84755 20.0946C9.84755 20.1062 9.83808 20.1156 9.82655 20.1156H6.8002C6.78858 20.1156 6.77911 20.1061 6.77911 20.0946V17.0683C6.77911 17.0566 6.78858 17.0473 6.8002 17.0473H9.82664C9.83817 17.0473 9.84764 17.0567 9.84764 17.0683V20.0946H9.84755Z"/><path fill="#244CC8" d="M18.7781 17.0683C18.7781 16.2813 18.1379 15.6411 17.3511 15.6411H14.3246C13.5377 15.6411 12.8975 16.2813 12.8975 17.0683V20.0947C12.8975 20.8816 13.5378 21.5219 14.3246 21.5219H17.3511C18.138 21.5219 18.7781 20.8816 18.7781 20.0947V17.0683ZM17.3721 20.0946C17.3721 20.1062 17.3626 20.1156 17.3511 20.1156H14.3246C14.313 20.1156 14.3035 20.1061 14.3035 20.0946V17.0683C14.3035 17.0566 14.313 17.0473 14.3246 17.0473H17.3511C17.3626 17.0473 17.3721 17.0567 17.3721 17.0683V20.0946Z"/><path fill="#244CC8" d="M9.82655 23.4172H6.8002C6.01327 23.4172 5.37305 24.0575 5.37305 24.8444V27.8708C5.37305 28.6578 6.01336 29.298 6.8002 29.298H9.82664C10.6136 29.298 11.2537 28.6578 11.2537 27.8708V24.8444C11.2536 24.0575 10.6135 23.4172 9.82655 23.4172ZM9.84755 27.8708C9.84755 27.8825 9.83808 27.8918 9.82655 27.8918H6.8002C6.78858 27.8918 6.77911 27.8824 6.77911 27.8708V24.8444C6.77911 24.8328 6.78858 24.8234 6.8002 24.8234H9.82664C9.83817 24.8234 9.84764 24.8329 9.84764 24.8444V27.8708H9.84755Z"/><path fill="#244CC8" d="M17.3511 23.4172H14.3246C13.5377 23.4172 12.8975 24.0575 12.8975 24.8444V27.8708C12.8975 28.6578 13.5378 29.298 14.3246 29.298H17.3511C18.138 29.298 18.7781 28.6578 18.7781 27.8708V24.8444C18.7781 24.0575 18.138 23.4172 17.3511 23.4172ZM17.3721 27.8708C17.3721 27.8825 17.3626 27.8918 17.3511 27.8918H14.3246C14.313 27.8918 14.3035 27.8824 14.3035 27.8708V24.8444C14.3035 24.8328 14.313 24.8234 14.3246 24.8234H17.3511C17.3626 24.8234 17.3721 24.8329 17.3721 24.8444V27.8708Z"/><path fill="#244CC8" d="M45.763 43.5292H44.7196V37.5881C44.7196 35.2214 43.1335 33.1028 40.8626 32.4361L36.6045 31.186C36.4845 31.0734 36.3461 30.9808 36.1949 30.9135L35.3108 30.5196C35.0607 30.4082 34.7941 30.3586 34.5305 30.3668V28.3845C35.9297 27.3647 36.9044 25.7896 37.1156 23.9742C37.8087 23.8029 38.3242 23.1758 38.3242 22.4305V20.5137V16.8352C38.3242 15.5433 37.2928 14.4878 36.0102 14.4487C35.9409 13.1938 34.8982 12.1941 33.6263 12.1941H27.8213C27.2864 12.1941 26.7731 12.2871 26.2956 12.4563C26.3 12.4107 26.3026 12.3647 26.3026 12.318V9.29175C26.3026 8.50481 25.6624 7.86459 24.8755 7.86459H21.8491C21.0622 7.86459 20.4219 8.50481 20.4219 9.29175V12.3182C20.4219 13.1051 21.0623 13.7453 21.8491 13.7453H24.3899C23.9164 14.2811 23.5656 14.9275 23.3832 15.6411H21.8491C21.0622 15.6411 20.4219 16.2813 20.4219 17.0682V20.0947C20.4219 20.8816 21.0623 21.5218 21.8491 21.5218H23.2411V22.4306C23.2411 22.8032 23.3699 23.1462 23.5853 23.4175H21.849C21.0621 23.4175 20.4218 24.0578 20.4218 24.8447V27.8711C20.4218 28.6581 21.0622 29.2982 21.849 29.2982H24.8754C25.6624 29.2982 26.3025 28.658 26.3025 27.8711V27.7628C26.5305 27.988 26.7754 28.1958 27.0347 28.3848V30.3633C26.7733 30.357 26.5094 30.4072 26.2627 30.5181L25.3956 30.9074C25.2453 30.9748 25.1079 31.0672 24.9888 31.1794L20.7052 32.4367C18.4341 33.1032 16.8479 35.2218 16.8479 37.5887V38.0661C16.8479 38.4544 17.1626 38.7691 17.5509 38.7691C17.9393 38.7691 18.254 38.4543 18.254 38.0661V37.5887C18.254 35.8417 19.4247 34.2778 21.1012 33.7858L24.6087 32.7563C24.6806 32.9552 24.7961 33.1416 24.9549 33.3007L27.3567 35.7056C27.3591 35.708 27.3614 35.7103 27.3638 35.7126C27.6611 36.0021 28.0463 36.1485 28.4327 36.1484C28.5229 36.1484 28.6131 36.1401 28.7023 36.124L29.201 36.9805L28.0403 43.5292H22.6539V42.0017C22.6539 41.6134 22.3392 41.2987 21.9509 41.2987C21.5626 41.2987 21.2479 41.6135 21.2479 42.0017V43.5292H18.2543V41.3526C18.2543 40.9642 17.9395 40.6495 17.5512 40.6495C17.1629 40.6495 16.8482 40.9643 16.8482 41.3526V43.5292H13.9221V35.3248H14.0104C14.3987 35.3248 14.7134 35.01 14.7134 34.6218C14.7134 34.2335 14.3987 33.9187 14.0104 33.9187H5.54569C5.15738 33.9187 4.84266 34.2336 4.84266 34.6218C4.84266 35.0101 5.15738 35.3248 5.54569 35.3248H5.634V43.5292H3.08785V6.71278C3.08785 6.12722 3.56429 5.65088 4.14975 5.65088H27.5266C28.1122 5.65088 28.5884 6.12722 28.5884 6.71278V9.56372C28.5884 9.95203 28.9031 10.2668 29.2914 10.2668C29.6798 10.2668 29.9945 9.95194 29.9945 9.56372V6.71278C29.9945 5.45878 29.0542 4.42097 27.8418 4.26562V1.72959C27.8419 0.775875 27.0659 0 26.1122 0H5.56407C4.61035 0 3.83457 0.775875 3.83457 1.72959V4.26562C2.6221 4.42097 1.68179 5.45878 1.68179 6.71278V43.5992C0.717285 43.8471 0.00244141 44.7238 0.00244141 45.7645C0.00244141 46.9972 1.00519 48 2.23791 48H45.7631C46.9958 48 47.9986 46.9972 47.9986 45.7645C47.9986 44.5319 46.9958 43.5292 45.763 43.5292ZM5.56407 1.40616H26.1122C26.2906 1.40616 26.4357 1.55128 26.4357 1.72959V4.24472H5.24063V1.72959C5.24063 1.55119 5.38575 1.40616 5.56407 1.40616ZM43.3135 37.5881V43.5292H40.3177V42.0017C40.3177 41.6134 40.0029 41.2987 39.6146 41.2987C39.2263 41.2987 38.9116 41.6135 38.9116 42.0017V43.5292H33.5282L32.3656 36.9733L32.8711 36.0674C32.9652 36.0853 33.0605 36.0951 33.1558 36.0951C33.5394 36.0951 33.9228 35.9504 34.2219 35.663L36.6248 33.3232C36.7899 33.1624 36.9097 32.9696 36.9831 32.7627L40.4667 33.7854C42.1428 34.2774 43.3135 35.8412 43.3135 37.5881ZM30.3425 36.1464L29.8998 35.386L30.8425 34.5985L31.6806 35.3152L31.2167 36.1463H30.3425V36.1464ZM34.7386 31.8039L35.6228 32.198C35.6676 32.2178 35.6807 32.2794 35.6437 32.3156L33.2443 34.6522C33.1971 34.6973 33.1242 34.6994 33.0746 34.6571L31.9613 33.7051L34.3571 31.85C34.4664 31.7653 34.6126 31.7478 34.7386 31.8039ZM33.6263 13.6002C34.1676 13.6002 34.6078 14.0405 34.6078 14.5817C34.6078 15.283 35.1784 15.8537 35.8798 15.8537H35.9365C36.4778 15.8537 36.918 16.2939 36.918 16.8352V19.8106H36.457C36.1984 19.8106 35.9879 19.6002 35.9879 19.3416V18.7C35.9879 17.5784 35.0672 16.7575 34.0536 16.7575C33.8484 16.7575 33.6413 16.7906 33.4385 16.8576C31.7266 17.4234 29.8407 17.4236 28.1265 16.8572C26.8696 16.4419 25.5773 17.3759 25.5773 18.6998V19.3416C25.5773 19.6002 25.3669 19.8106 25.1082 19.8106H24.6473V16.7741C24.6473 15.0241 26.071 13.6002 27.8213 13.6002H33.6263ZM21.8282 12.3181V9.29175C21.8282 9.28012 21.8377 9.27075 21.8493 9.27075H24.8757C24.8873 9.27075 24.8967 9.28022 24.8967 9.29175V12.3182C24.8967 12.3298 24.8873 12.3392 24.8757 12.3392H21.8493C21.8377 12.3391 21.8282 12.3297 21.8282 12.3181ZM21.8282 20.0945V17.0681C21.8282 17.0565 21.8377 17.0471 21.8493 17.0471H23.2413V20.1156H21.8493C21.8377 20.1155 21.8282 20.1061 21.8282 20.0945ZM24.8966 27.8709C24.8966 27.8826 24.8872 27.8919 24.8756 27.8919H21.8492C21.8376 27.8919 21.8281 27.8826 21.8281 27.8709V24.8445C21.8281 24.8329 21.8376 24.8235 21.8492 24.8235H24.6083C24.6844 25.119 24.7808 25.4062 24.8965 25.6831V27.8709H24.8966ZM25.823 23.5481C25.7897 23.0245 25.354 22.6143 24.8313 22.6143C24.7299 22.6143 24.6474 22.5318 24.6474 22.4304V21.2167H25.1084C26.1424 21.2167 26.9836 20.3755 26.9836 19.3416V18.6998C26.9836 18.3392 27.335 18.0766 27.6878 18.1931C29.6844 18.8527 31.8835 18.8526 33.8798 18.1927C34.2254 18.0786 34.5819 18.3349 34.5819 18.7V19.3416C34.5819 20.3755 35.4232 21.2167 36.4571 21.2167H36.9181V22.4304C36.9181 22.5318 36.8356 22.6143 36.7343 22.6143C36.2114 22.6143 35.7758 23.0244 35.7426 23.5484C35.578 26.1577 33.3995 28.2016 30.7827 28.2016C28.1661 28.2016 25.9875 26.1577 25.823 23.5481ZM30.7828 29.6077C31.6073 29.6077 32.3977 29.4488 33.1244 29.1604V31.0259L30.8402 32.7947L28.441 31.002V29.1605C29.1679 29.4488 29.9582 29.6077 30.7828 29.6077ZM25.9503 32.3068C25.9122 32.2687 25.9296 32.2088 25.9718 32.1899L26.8388 31.8007C26.9628 31.7452 27.1073 31.7609 27.2164 31.8423L29.7143 33.7088L28.5137 34.7116C28.4646 34.7526 28.3932 34.7506 28.3466 34.7072L25.9503 32.3068ZM30.5277 37.5525H31.0402L32.1001 43.5292H29.4684L30.5277 37.5525ZM7.04016 35.3248H12.5158V43.5292H7.04016V35.3248ZM45.763 46.5938H2.23791C1.7806 46.5938 1.4086 46.2218 1.4086 45.7645C1.4086 45.3072 1.7806 44.9353 2.23791 44.9353H45.7631C46.2204 44.9353 46.5924 45.3073 46.5924 45.7645C46.5924 46.2217 46.2203 46.5938 45.763 46.5938Z"/></svg>