<svg width="38" height="34" viewBox="0 0 38 34" fill="none" xmlns="http://www.w3.org/2000/svg">
<path d="M35.2958 11.8876C35.2281 11.8199 35.1593 11.7539 35.0899 11.6886V9.5495C35.0899 7.42247 33.3594 5.69198 31.2324 5.69198H24.4659V3.75339C24.4659 1.68373 22.7821 0 20.7126 0H14.377C12.3074 0 10.6236 1.68373 10.6236 3.75339V5.69198H3.85703C1.73 5.69198 -0.000488281 7.42247 -0.000488281 9.5495V26.7201C-0.000488281 28.8471 1.73 30.5776 3.85703 30.5776H11.911C12.2184 30.5776 12.4676 30.3284 12.4676 30.021C12.4676 29.7136 12.2184 29.4643 11.911 29.4643H3.85703C2.34379 29.4643 1.11272 28.2333 1.11272 26.72V15.4907C2.2027 17.1075 3.99567 18.2128 6.04968 18.3651V20.3917C6.04968 21.5491 6.99136 22.4908 8.1488 22.4908C9.30632 22.4908 10.248 21.5491 10.248 20.3917V18.3832H19.5498C19.5498 18.3921 19.5495 18.401 19.5495 18.4099C19.5495 20.3054 20.1179 22.1133 21.1732 23.6399L19.9914 24.8216C19.5788 24.7048 19.1164 24.8079 18.7923 25.1322L14.2531 29.6713C13.3547 30.5698 13.3547 32.0318 14.2531 32.9303C15.1537 33.8308 16.6114 33.831 17.5121 32.9303L22.0512 28.3911C22.3754 28.0669 22.4786 27.6046 22.3618 27.192L23.5446 26.0092C26.6724 28.1634 30.8417 28.1702 33.9768 26.0267V26.7201C33.9768 28.2333 32.7457 29.4644 31.2325 29.4644H22.4402C22.1328 29.4644 21.8836 29.7136 21.8836 30.021C21.8836 30.3285 22.1328 30.5777 22.4402 30.5777H31.2324C33.3594 30.5777 35.0899 28.8472 35.0899 26.7202V25.1314C35.1592 25.0662 35.228 25.0001 35.2958 24.9324C38.9005 21.3276 38.901 15.4928 35.2958 11.8876ZM11.7368 3.75339C11.7368 2.29759 12.9211 1.11321 14.3769 1.11321H20.7125C22.1683 1.11321 23.3527 2.29759 23.3527 3.75339V5.69198H22.1652V3.75339C22.1652 2.95235 21.5135 2.30063 20.7125 2.30063H14.3769C13.5759 2.30063 12.9242 2.95235 12.9242 3.75339V5.69198H11.7368V3.75339ZM14.0374 5.69198V3.75339C14.0374 3.56621 14.1897 3.41391 14.3769 3.41391H20.7125C20.8997 3.41391 21.052 3.56621 21.052 3.75339V5.69198H14.0374ZM9.1348 18.6808H7.16296V16.8069C7.16296 16.2633 7.60523 15.821 8.14888 15.821C8.69253 15.821 9.1348 16.2633 9.1348 16.8069V18.6808ZM8.14888 21.3777C7.60523 21.3777 7.16296 20.9354 7.16296 20.3918V19.794H9.1348V20.3918C9.1348 20.9354 8.69253 21.3777 8.14888 21.3777ZM10.248 17.2701V16.8069C10.248 15.6495 9.30632 14.7078 8.1488 14.7078C6.99136 14.7078 6.04968 15.6495 6.04968 16.8069V17.2471C3.28629 16.9995 1.11272 14.672 1.11272 11.8453V9.5495C1.11272 8.03626 2.34379 6.80519 3.85703 6.80519H31.2324C32.7456 6.80519 33.9767 8.03626 33.9767 9.5495V10.7913C30.4569 8.3764 25.4988 8.6398 22.2511 11.8875C20.7805 13.3581 19.8676 15.2379 19.6188 17.27H10.248V17.2701ZM16.7249 32.1432C16.2594 32.6087 15.5058 32.6087 15.0402 32.1432C14.8152 31.9181 14.6913 31.619 14.6913 31.3009C14.6913 30.9827 14.8152 30.6835 15.0402 30.4586L18.1848 27.314L19.8694 28.9986L16.7249 32.1432ZM21.264 27.604L20.6566 28.2114L18.972 26.5268L19.5794 25.9194C19.6008 25.8981 19.6287 25.8874 19.6567 25.8874C19.6847 25.8874 19.7127 25.8981 19.734 25.9193C19.7341 25.9194 19.7342 25.9196 19.7344 25.9196L21.264 27.4493C21.3066 27.492 21.3066 27.5614 21.264 27.604ZM21.6842 26.2952L20.8882 25.4991L21.8654 24.5219C21.9895 24.6618 22.1177 24.7989 22.2511 24.9322C22.3848 25.0659 22.5219 25.194 22.6616 25.3177L21.6842 26.2952ZM23.0383 24.1451C21.5063 22.6133 20.6627 20.5764 20.6627 18.41C20.6627 16.2435 21.5063 14.2067 23.0383 12.6748C26.2079 9.50512 31.3386 9.50468 34.5086 12.6748C37.6783 15.8444 37.6787 20.9751 34.5086 24.1451C31.3389 27.3149 26.2083 27.3152 23.0383 24.1451Z" fill="#244CC8"/>
<path d="M34.8801 19.1743C34.5797 19.109 34.2831 19.2994 34.2179 19.5999C33.9914 20.6415 33.4713 21.5925 32.7136 22.3501C30.536 24.5277 27.0113 24.5279 24.8334 22.3501C22.6608 20.1775 22.6608 16.6424 24.8334 14.4698C27.011 12.2922 30.5358 12.292 32.7136 14.4698C33.4704 15.2266 33.9904 16.1766 34.2173 17.2171C34.2828 17.5175 34.5794 17.7082 34.8797 17.6424C35.1801 17.5769 35.3704 17.2804 35.305 16.98C35.0326 15.7307 34.4087 14.5906 33.5009 13.6827C30.8881 11.07 26.6593 11.0697 24.0463 13.6827C21.4396 16.2893 21.4396 20.5306 24.0463 23.1373C26.6528 25.7438 30.8941 25.744 33.5009 23.1373C34.4097 22.2284 35.0338 21.087 35.3057 19.8364C35.371 19.5361 35.1804 19.2397 34.8801 19.1743Z" fill="#244CC8"/>
</svg>
