<svg xmlns="http://www.w3.org/2000/svg" width="38" height="38" fill="none" viewBox="0 0 38 38"><path fill="#244CC8" d="M37.4434 28.2407C37.7509 28.2407 38 27.9915 38 27.6842V8.05624C38 7.35287 37.7261 6.69165 37.2288 6.19438L31.8056 0.771209C31.3083 0.273868 30.6471 0 29.9437 0H12.0981C10.6462 0 9.46499 1.18119 9.46499 2.63306V22.3794C8.20008 22.5246 7.04998 23.162 6.24983 24.1781L5.43008 25.2192C5.20364 25.5067 4.90424 25.7268 4.5684 25.8608C4.4276 24.7303 3.46142 23.8524 2.29336 23.8524C1.02882 23.8524 0 24.8812 0 26.1458V35.6909C0 36.9554 1.02882 37.9843 2.29336 37.9843C3.33206 37.9843 4.21118 37.29 4.49225 36.3411C4.74934 36.3552 5.1332 36.284 5.6465 36.4885C6.59294 36.7918 8.48738 37.9843 11.5903 37.9843H14.8185C15.7576 37.9843 16.5216 37.2203 16.5216 36.2812V35.9715H35.3669C36.8189 35.9715 38 34.7903 38 33.3383V30.3117C38 30.0043 37.7509 29.7552 37.4434 29.7552C37.136 29.7552 36.8869 30.0044 36.8869 30.3117V33.3383C36.8869 34.1764 36.205 34.8582 35.3669 34.8582H16.3755C16.3621 34.8281 16.3478 34.7984 16.3328 34.7693C16.8808 34.4859 17.2563 33.9137 17.2563 33.2553V32.5223C17.2563 32.2153 17.1747 31.927 17.032 31.678C17.5168 31.3775 17.8403 30.8405 17.8403 30.2295V29.4964C17.8403 29.1523 17.7376 28.8316 17.5615 28.5634C17.9734 28.2523 18.2403 27.7585 18.2403 27.2036V26.4705C18.2403 25.5315 17.4764 24.7675 16.5375 24.7675L11.0382 24.7663C10.7845 24.7663 10.5782 24.5599 10.5782 24.3062V22.9054C10.5782 22.9048 10.5783 22.9044 10.5783 22.904V2.63306C10.5783 1.79498 11.2601 1.11313 12.0982 1.11313H29.9438C30.047 1.11313 30.1485 1.12353 30.2473 1.14349V5.90879C30.2473 6.92551 31.0745 7.75276 32.0913 7.75276H36.8565C36.8765 7.85162 36.8869 7.95315 36.8869 8.05624V27.6842C36.8868 27.9916 37.1359 28.2407 37.4434 28.2407ZM2.29329 36.8711C1.64254 36.8711 1.11306 36.3417 1.11306 35.6909V26.1457C1.11306 25.4949 1.64254 24.9655 2.29329 24.9655C2.94404 24.9655 3.47344 25.4949 3.47344 26.1457V35.6908C3.47352 36.3417 2.94412 36.8711 2.29329 36.8711ZM11.0378 25.8797L16.5372 25.8809C16.8625 25.8809 17.127 26.1455 17.127 26.4707V27.2038C17.127 27.529 16.8625 27.7936 16.5372 27.7936H16.1373L11.3318 27.793C11.3318 27.793 11.3318 27.793 11.3317 27.793C11.0244 27.793 10.7752 28.0422 10.7752 28.3495C10.7752 28.657 11.0243 28.9062 11.3317 28.9062L16.1371 28.9067H16.1372C16.4624 28.9067 16.727 29.1713 16.727 29.4965V30.2296C16.727 30.5548 16.4624 30.8194 16.1372 30.8194H15.5533L10.7388 30.819C10.4315 30.819 10.1822 31.0681 10.1822 31.3755C10.1822 31.6829 10.4314 31.9321 10.7388 31.9322L15.5533 31.9326C15.8785 31.9326 16.1431 32.1972 16.1431 32.5224V33.2555C16.1431 33.5807 15.8785 33.8453 15.5533 33.8453H14.8187L9.99105 33.844C9.99098 33.844 9.99098 33.844 9.9909 33.844C9.68356 33.844 9.43441 34.0932 9.43433 34.4005C9.43426 34.7079 9.68341 34.9571 9.99075 34.9572L14.8184 34.9584H14.8185C15.1438 34.9584 15.4084 35.223 15.4084 35.5483V36.2813C15.4084 36.6065 15.1438 36.8711 14.8185 36.8711H11.5903C8.75902 36.8711 7.1049 35.7927 6.05841 35.4544C5.33092 35.1645 4.76671 35.2405 4.58665 35.228V27.0229C5.26145 26.8504 5.87005 26.4597 6.3046 25.9079L7.12435 24.8668C7.71164 24.121 8.5443 23.6407 9.46491 23.5022V24.3064C9.46491 25.1736 10.1705 25.8795 11.0378 25.8797ZM31.3604 5.90879V1.9003L36.0996 6.63955H32.0911C31.6883 6.63955 31.3604 6.31172 31.3604 5.90879Z"/></svg>