<svg xmlns="http://www.w3.org/2000/svg" width="32" height="36" fill="none" viewBox="0 0 32 36"><path fill="#244CC8" d="M30.7472 18.4344H28.4918C27.8179 18.4344 27.2697 18.9827 27.2697 19.6566V20.8755C27.2697 21.5113 27.7578 22.0347 28.3789 22.092V22.6987C28.3789 23.1359 28.0231 23.4916 27.5859 23.4916H26.9245V22.7877C26.9245 21.1998 25.6327 19.9079 24.0448 19.9079H23.4161C24.5558 19.0426 25.3138 17.7743 25.5288 16.3379L26.6567 8.80665C26.6995 8.52064 26.5024 8.25411 26.2164 8.21131C25.9313 8.16857 25.6639 8.36555 25.6211 8.65156L24.4933 16.1828C24.3554 17.1043 23.9412 17.9401 23.3164 18.5964V12.5817C23.3164 11.5637 22.4882 10.7354 21.47 10.7354H18.8743V10.0223C18.8743 9.12593 18.1452 8.39681 17.249 8.39681H14.7207C13.8246 8.39681 13.0955 9.126 13.0955 10.0223V10.7354H10.4998C9.48162 10.7354 8.65338 11.5637 8.65338 12.5817V18.5964C8.02859 17.9401 7.61443 17.1042 7.47647 16.1828L5.9782 6.17727C5.57365 3.47586 7.66831 1.04716 10.3974 1.04716H21.5725C24.3045 1.04716 26.3957 3.47871 25.9917 6.17727C25.9488 6.46328 26.1459 6.72981 26.4319 6.77261C26.7171 6.815 26.9844 6.61837 27.0272 6.33236C27.5267 2.99717 24.9406 0 21.5725 0H10.3974C7.02501 0 4.4438 3.00142 4.94267 6.33236L6.44101 16.3378C6.6561 17.7742 7.41411 19.0425 8.55377 19.9078H7.92509C6.33716 19.9078 5.04534 21.1996 5.04534 22.7875V23.4915H4.38394C3.94674 23.4915 3.59099 23.1358 3.59099 22.6985V22.0919C4.21208 22.0346 4.70016 21.5112 4.70016 20.8754V19.6564C4.70016 18.9825 4.15187 18.4342 3.47801 18.4342H1.22263C0.548707 18.4342 0.000488281 18.9825 0.000488281 19.6564C0.000488281 21.0025 1.0956 22.0975 2.44158 22.0975H2.54376V22.6984C2.54376 23.7131 3.36922 24.5386 4.38387 24.5386H7.95314C8.24235 24.5386 8.47672 24.3041 8.47672 24.015C8.47672 23.7258 8.24235 23.4914 7.95314 23.4914H6.09249V22.7875C6.09249 21.777 6.91461 20.9549 7.92509 20.9549H24.0448C25.0552 20.9549 25.8774 21.777 25.8774 22.7875V23.4914H10.4009C10.1117 23.4914 9.87733 23.7258 9.87733 24.015C9.87733 24.3041 10.1117 24.5386 10.4009 24.5386H14.3909V28.3793H14.333C13.3512 28.3793 12.5526 29.1779 12.5526 30.1597V30.5202H11.969C10.7816 30.5202 9.72566 31.2372 9.27413 32.3064H8.61655C7.69796 32.3064 6.95067 33.0538 6.95067 33.9724C6.95067 34.8909 7.69803 35.6383 8.61655 35.6383H9.67833C10.597 35.6383 11.3443 34.8909 11.3443 33.9724C11.3443 33.3012 10.9452 32.7219 10.372 32.4583C10.7077 31.9163 11.3059 31.5673 11.9691 31.5673H20.001C20.6641 31.5673 21.2624 31.9162 21.598 32.4583C21.0249 32.7219 20.6258 33.3012 20.6258 33.9724C20.6258 34.8909 21.3731 35.6383 22.2917 35.6383H23.3535C24.2721 35.6383 25.0194 34.8909 25.0194 33.9724C25.0194 33.0538 24.272 32.3064 23.3535 32.3064H22.6959C22.2443 31.2373 21.1885 30.5202 20.0011 30.5202H19.4175V30.1597C19.4175 29.1779 18.6188 28.3793 17.6371 28.3793H17.5789V24.5386H27.586C28.6006 24.5386 29.4261 23.7131 29.4261 22.6984V22.0975H29.5283C30.8743 22.0975 31.9694 21.0024 31.9694 19.6564C31.9694 18.9826 31.4212 18.4344 30.7472 18.4344ZM2.44158 21.0505C1.67292 21.0505 1.04764 20.4252 1.04764 19.6566C1.04764 19.5601 1.12616 19.4815 1.22263 19.4815H3.47801C3.57449 19.4815 3.653 19.56 3.653 19.6566V20.8755C3.653 20.972 3.57449 21.0506 3.47801 21.0506H2.44158V21.0505ZM14.1427 10.0222C14.1427 9.70331 14.4021 9.44389 14.7208 9.44389H17.2491C17.5678 9.44389 17.8272 9.70331 17.8272 10.0222V10.7353H14.1428V10.0222H14.1427ZM22.2693 19.1086C22.2693 19.5493 21.9107 19.9079 21.47 19.9079H10.4998C10.0591 19.9079 9.7006 19.5493 9.7006 19.1086V15.3861C10.2081 15.8115 10.8615 16.0683 11.574 16.0683H11.9034V16.5496C11.9034 16.8388 12.1378 17.0732 12.427 17.0732C12.7162 17.0732 12.9506 16.8388 12.9506 16.5496V16.0683H19.0193V16.5496C19.0193 16.8388 19.2537 17.0732 19.5429 17.0732C19.8321 17.0732 20.0665 16.8388 20.0665 16.5496V16.0683H20.3959C21.1084 16.0683 21.7618 15.8115 22.2693 15.3861V19.1086H22.2693ZM22.2693 13.1478C22.2693 14.1807 21.4289 15.0212 20.3959 15.0212H20.0664V14.5399C20.0664 14.2508 19.8321 14.0163 19.5428 14.0163C19.2536 14.0163 19.0193 14.2508 19.0193 14.5399V15.0212H12.9505V14.5399C12.9505 14.2508 12.7162 14.0163 12.4269 14.0163C12.1377 14.0163 11.9034 14.2508 11.9034 14.5399V15.0212H11.5739C10.541 15.0212 9.70053 14.1808 9.70053 13.1478V12.5816C9.70053 12.1409 10.0591 11.7824 10.4998 11.7824H21.47C21.9106 11.7824 22.2692 12.1409 22.2692 12.5816V13.1478H22.2693ZM9.67826 34.5912H8.61649C8.27528 34.5912 7.99776 34.3136 7.99776 33.9724C7.99776 33.6312 8.27528 33.3536 8.61649 33.3536H9.67826C10.0195 33.3536 10.2971 33.6312 10.2971 33.9724C10.2971 34.3136 10.0195 34.5912 9.67826 34.5912ZM22.2916 33.3536H22.3213C22.3218 33.3536 22.3224 33.3538 22.3229 33.3538C22.3235 33.3538 22.3242 33.3536 22.3249 33.3536H23.3533C23.6945 33.3536 23.972 33.6312 23.972 33.9724C23.972 34.3136 23.6945 34.5912 23.3533 34.5912H22.2915C21.9503 34.5912 21.6727 34.3136 21.6727 33.9724C21.6728 33.6312 21.9504 33.3536 22.2916 33.3536ZM15.4381 24.5387H16.5318V28.3794H15.4381V24.5387ZM17.637 29.4266C18.0412 29.4266 18.3702 29.7555 18.3702 30.1598V30.5203H13.5997V30.1598C13.5997 29.7555 13.9287 29.4266 14.333 29.4266H17.637ZM29.5283 21.0505H28.4919C28.3954 21.0505 28.3169 20.972 28.3169 20.8755V19.6565C28.3169 19.56 28.3954 19.4815 28.4919 19.4815H30.7473C30.8438 19.4815 30.9223 19.56 30.9223 19.6565C30.9222 20.4252 30.2969 21.0505 29.5283 21.0505Z"/></svg>