<svg xmlns="http://www.w3.org/2000/svg" width="38" height="34" fill="none" viewBox="0 0 38 34"><path fill="#244CC8" d="M36.5218 28.5237H35.4631V11.0153C35.4631 9.86143 34.5244 8.92271 33.3705 8.92271H32.0241C31.7167 8.92271 31.4675 9.17194 31.4675 9.47935C31.4675 9.78676 31.7167 10.036 32.0241 10.036H33.3705C33.9106 10.036 34.3499 10.4753 34.3499 11.0153V28.5237H32.4943V13.4677C32.4943 12.5986 31.7872 11.8915 30.9181 11.8915H29.9729V1.54182C29.9729 0.691643 29.2812 0 28.4311 0H9.56886C8.71876 0 8.02711 0.691643 8.02711 1.54182V11.8915H7.08179C6.21269 11.8915 5.50561 12.5985 5.50561 13.4676V28.5236H3.65015V11.0153C3.65015 10.4753 4.08945 10.036 4.62939 10.036H5.98143C6.28891 10.036 6.53807 9.78676 6.53807 9.47935C6.53807 9.17194 6.28891 8.92271 5.98143 8.92271H4.62939C3.47551 8.92271 2.53687 9.86143 2.53687 11.0153V28.5237H1.47814C0.663143 28.5237 0 29.1868 0 30.0019C0 32.134 1.73449 33.8685 3.86657 33.8685H34.1334C36.2655 33.8685 38 32.1339 38 30.0019C37.9999 29.1868 37.3368 28.5237 36.5218 28.5237ZM30.9181 13.0047C31.1734 13.0047 31.381 13.2124 31.381 13.4676V28.5236H29.9728V13.0047H30.9181ZM9.56886 1.11328H28.4311C28.6675 1.11328 28.8596 1.30551 28.8596 1.54182V3.67946H12.8136C12.5061 3.67946 12.257 3.92869 12.257 4.2361C12.257 4.54351 12.5061 4.79274 12.8136 4.79274H28.8595V28.5237H9.14032V4.79274H10.1803C10.4878 4.79274 10.737 4.54351 10.737 4.2361C10.737 3.92869 10.4878 3.67946 10.1803 3.67946H9.14032V1.54182C9.14032 1.30558 9.33254 1.11328 9.56886 1.11328ZM23.959 29.637C23.7342 30.2222 23.1679 30.6394 22.5044 30.6394H15.4954C14.832 30.6394 14.2656 30.2222 14.0408 29.637H23.959ZM6.61889 13.4677C6.61889 13.2125 6.82655 13.0048 7.08179 13.0048H8.02704V28.5238H6.61889V13.4677ZM34.1334 32.7552H3.86657C2.34843 32.7552 1.11328 31.5201 1.11328 30.0019C1.11328 29.8007 1.27693 29.637 1.47814 29.637H12.8818C13.1387 30.8442 14.2128 31.7527 15.4955 31.7527H22.5046C23.7873 31.7527 24.8614 30.8442 25.1182 29.637H36.5219C36.7231 29.637 36.8868 29.8007 36.8868 30.0019C36.8867 31.5201 35.6515 32.7552 34.1334 32.7552Z"/></svg>