<svg width="38" height="39" viewBox="0 0 38 39" fill="none" xmlns="http://www.w3.org/2000/svg">
<path d="M36.0367 26.9697H33.0115V26.0446C33.0115 25.7371 32.7623 25.4879 32.4549 25.4879C32.1474 25.4879 31.8982 25.7371 31.8982 26.0446V26.9697H26.7494C27.1229 26.3988 27.3467 25.8827 27.4283 25.408C27.5409 24.7522 27.3239 24.066 26.8159 23.4597C27.853 22.7044 28.3787 22.0098 28.3787 21.3938C28.3787 21.0784 28.3115 20.7472 28.1788 20.4075L29.4138 20.7985C30.6662 21.195 31.5948 22.2427 31.8371 23.5328C31.8941 23.8363 32.1862 24.0336 32.4869 23.9771C32.7891 23.9203 32.988 23.6295 32.9312 23.3273C32.613 21.6334 31.3939 20.2576 29.7498 19.7371L26.9638 18.8551C26.0155 18.18 25.1353 18.2203 24.7662 18.1385L23.9797 17.4533C23.6009 17.1233 23.117 16.9872 22.6517 17.043V15.5671C23.9839 14.5711 24.9014 13.0437 25.0781 11.2911C25.7435 11.1714 26.25 10.5881 26.25 9.88872V4.41159C26.25 3.1954 25.2605 2.20595 24.0443 2.20595L23.9885 2.20565C23.9885 0.989451 22.9991 0 21.7829 0H16.1004C14.2629 0 12.6147 1.16268 11.9993 2.89331C11.8962 3.18293 12.0475 3.50126 12.3372 3.60428C12.6268 3.70753 12.9452 3.55604 13.0482 3.26628C13.5062 1.97853 14.7328 1.11325 16.1004 1.11325H21.7829C22.3852 1.11325 22.8753 1.60326 22.8753 2.20565C22.8753 2.81969 23.3748 3.3192 23.9888 3.3192H24.0444C24.6467 3.3192 25.1368 3.80921 25.1368 4.41152V7.45573H24.554C24.2283 7.45573 23.9632 7.19068 23.9632 6.86492V6.23693C23.9632 5.03083 22.7855 4.17965 21.6405 4.55841C19.938 5.12123 18.0627 5.1213 16.3602 4.55878C16.3582 4.55811 16.3558 4.55729 16.3533 4.55655C15.2112 4.18284 14.0356 5.03083 14.0356 6.23678V6.865C14.0356 7.19068 13.7706 7.4558 13.4448 7.4558H12.862V5.68212C12.862 5.3747 12.6128 5.12546 12.3053 5.12546C11.9979 5.12546 11.7487 5.37462 11.7487 5.68212V9.88872C11.7487 10.588 12.2552 11.1713 12.9206 11.2911C13.0974 13.0437 14.0149 14.5711 15.347 15.5671V17.0426C14.8823 16.9876 14.3994 17.1238 14.0212 17.4533L13.2245 18.1474C13.0683 18.1864 12.5334 18.2241 11.8801 18.588L8.25121 19.7371C6.30021 20.3547 4.98945 22.1447 4.98945 24.1911V26.9696H1.96425C0.881427 26.9696 0.000488281 27.8505 0.000488281 28.9334V36.0378C0.000488281 37.1206 0.881427 38.0016 1.96425 38.0016H36.0367C37.1196 38.0016 38.0005 37.1206 38.0005 36.0378V28.9334C38.0004 27.8505 37.1195 26.9697 36.0367 26.9697ZM25.0863 19.3075C25.1811 19.3315 25.7277 19.3314 26.3811 19.8085C26.6967 20.0487 26.9455 20.3619 27.1011 20.7147C27.2101 20.9619 27.2654 21.1903 27.2654 21.3938C27.2654 21.4954 27.0389 21.9446 26.0324 22.6515C25.811 22.8069 25.6672 23.0543 25.6378 23.3302C25.6081 23.6088 25.698 23.8843 25.8845 24.0861C26.1312 24.3528 26.409 24.766 26.331 25.2196C26.2751 25.5454 26.0607 26.1068 25.373 26.9697H22.6336C24.1892 23.8346 25.0118 21.2643 25.0863 19.3075ZM21.3951 26.9542L20.4891 23.5317L20.992 22.9382C21.5489 23.0399 22.111 22.8144 22.4455 22.3683L23.8316 20.5199C23.5175 22.2421 22.7024 24.396 21.3951 26.9542ZM23.2484 18.2927L23.7696 18.7467L21.5547 21.7004C21.4259 21.8722 21.1783 21.9003 21.0142 21.7585L19.8348 20.7384C23.4064 17.4146 22.2441 18.503 22.4799 18.2775C22.7045 18.0964 23.0276 18.1003 23.2484 18.2927ZM20.0163 22.3674L19.6186 22.8367H18.3792L17.9757 22.375L19.0005 21.4888L20.0163 22.3674ZM16.4601 17.6286V16.229C17.2355 16.5849 18.0962 16.783 18.9993 16.783C19.9024 16.783 20.7631 16.5849 21.5384 16.229V17.6309L19.0005 19.9942L16.4601 17.6286ZM18.573 23.95H19.4482L20.2475 26.9697H17.9017L18.573 23.95ZM14.0128 10.9914C13.9848 10.5478 13.6161 10.2003 13.1734 10.2003C13.0017 10.2003 12.8619 10.0605 12.8619 9.88879V8.56905H13.4447C14.3844 8.56905 15.1488 7.80464 15.1488 6.865V6.23686C15.1488 5.79049 15.5847 5.47504 16.0087 5.61525C16.0106 5.61592 16.0129 5.61666 16.0152 5.61733C17.9418 6.25274 20.0634 6.25222 21.9898 5.61555C22.4139 5.47534 22.8499 5.79049 22.8499 6.23708V6.86507C22.8499 7.80472 23.6143 8.56913 24.554 8.56913H25.1367V9.88887C25.1367 10.0606 24.997 10.2004 24.8252 10.2004C24.3825 10.2004 24.0138 10.5478 23.9858 10.9915C23.8203 13.6148 21.63 15.6699 18.9993 15.6699C16.3685 15.6699 14.1783 13.6147 14.0128 10.9914ZM14.7524 18.2927C14.9725 18.1009 15.294 18.0964 15.5185 18.2755C15.5865 18.3406 18.1543 20.7275 18.166 20.7385L16.9867 21.7586C16.9075 21.8269 16.8069 21.8582 16.7037 21.847C16.6001 21.8358 16.5086 21.7837 16.4461 21.7004L14.2313 18.7467L14.7524 18.2927ZM15.5554 22.3682C15.8805 22.8018 16.4315 23.0369 16.992 22.9411L17.522 23.5475L16.8079 26.7596C15.421 24.2587 14.5598 22.2118 14.2071 20.5701L15.5554 22.3682ZM11.4735 20.5202C11.7833 19.9392 12.3191 19.5295 12.9198 19.3505C13.0218 21.2812 13.9218 23.789 15.6533 26.9697H13.1068C12.4192 26.1068 12.2048 25.5454 12.1487 25.2196C12.0709 24.766 12.3485 24.3528 12.5953 24.0859C12.7818 23.8842 12.8717 23.6088 12.842 23.3302C12.8126 23.0543 12.6687 22.8069 12.4474 22.6515C11.4409 21.9446 11.2144 21.4954 11.2144 21.3938C11.2144 21.1367 11.3016 20.8427 11.4735 20.5202ZM6.10263 24.1912C6.10263 22.6324 7.10106 21.269 8.58713 20.7985L10.3748 20.2325C10.1931 20.6344 10.1011 21.0241 10.1011 21.3938C10.1011 22.0097 10.6267 22.7043 11.6638 23.4597C11.1559 24.066 10.9389 24.7522 11.0515 25.408C11.1331 25.8828 11.3569 26.3988 11.7304 26.9697H6.10263V24.1912ZM36.8872 36.0378C36.8872 36.5067 36.5057 36.8883 36.0367 36.8883H1.96425C1.49532 36.8883 1.11374 36.5068 1.11374 36.0378V28.9334C1.11374 28.4644 1.49524 28.0829 1.96425 28.0829H36.0367C36.5057 28.0829 36.8872 28.4644 36.8872 28.9334V36.0378H36.8872Z" fill="#244CC8"/>
<path d="M7.17799 31.2228L6.52565 31.1994L6.3018 30.5862C6.16827 30.2205 5.83042 29.9841 5.44097 29.9841C5.05153 29.9841 4.71375 30.2205 4.58015 30.5862L4.35637 31.1994L3.70403 31.2228C3.31489 31.2368 2.98564 31.4851 2.86533 31.8555C2.74501 32.2259 2.8654 32.6202 3.17201 32.8602L3.68592 33.2625L3.5066 33.8903C3.39965 34.2647 3.53414 34.6545 3.84914 34.8834C4.16421 35.1122 4.57644 35.1195 4.89952 34.9021L5.44105 34.5376L5.9825 34.9021C6.13933 35.0077 6.31709 35.0603 6.49463 35.0603C6.68285 35.0602 6.87078 35.0012 7.03288 34.8834C7.34788 34.6545 7.48237 34.2646 7.37542 33.8902L7.1961 33.2626L7.71001 32.8602C8.01662 32.6202 8.13701 32.2259 8.01669 31.8555C7.8963 31.4851 7.56713 31.2368 7.17799 31.2228ZM6.40541 32.4675C6.11038 32.6985 5.98621 33.0805 6.08908 33.4409L6.15662 33.6773L5.95266 33.54C5.64182 33.3308 5.24013 33.3307 4.92921 33.54L4.72525 33.6773L4.79279 33.4409C4.89574 33.0806 4.77164 32.6984 4.47654 32.4675L4.28296 32.316L4.52856 32.3071C4.90309 32.2938 5.22811 32.0577 5.35666 31.7056L5.44097 31.4746L5.52529 31.7056C5.65384 32.0577 5.97886 32.2938 6.35323 32.3071L6.59898 32.316L6.40541 32.4675Z" fill="#244CC8"/>
<path d="M13.9578 31.2228L13.3055 31.1994L13.0817 30.5862C12.9481 30.2205 12.6103 29.9841 12.2208 29.9841C11.8315 29.9841 11.4936 30.2205 11.36 30.5862L11.1362 31.1994L10.4838 31.2228C10.0947 31.2368 9.76543 31.4851 9.64511 31.8555C9.5248 32.2259 9.64519 32.6202 9.9518 32.8602L10.4657 33.2625L10.2864 33.8903C10.1794 34.2647 10.3139 34.6545 10.6289 34.8834C10.944 35.1122 11.3562 35.1195 11.6793 34.9021L12.2208 34.5376L12.7623 34.9021C13.0852 35.1195 13.4974 35.1124 13.8126 34.8834C14.1276 34.6545 14.2621 34.2646 14.1551 33.8902L13.9758 33.2626L14.4897 32.8602C14.7963 32.6202 14.9167 32.2259 14.7964 31.8555C14.6762 31.4851 14.3469 31.2368 13.9578 31.2228ZM13.1853 32.4675C12.8902 32.6985 12.7661 33.0805 12.8689 33.4409L12.9365 33.6773L12.7325 33.54C12.4217 33.3308 12.02 33.3307 11.7091 33.54L11.5051 33.6773L11.5727 33.4409C11.6756 33.0806 11.5515 32.6984 11.2564 32.4675L11.0628 32.316L11.3084 32.3071C11.6829 32.2938 12.008 32.0577 12.1365 31.7056L12.2208 31.4746L12.3051 31.7056C12.4337 32.0577 12.7587 32.2938 13.1331 32.3071L13.3788 32.316L13.1853 32.4675Z" fill="#244CC8"/>
<path d="M20.7371 31.2228L20.0848 31.1994L19.861 30.5862C19.7274 30.2205 19.3896 29.9841 19.0001 29.9841C18.6107 29.9841 18.2729 30.2205 18.1393 30.5862L17.9155 31.1994L17.2631 31.2228C16.874 31.2368 16.5447 31.4851 16.4244 31.8555C16.3041 32.2259 16.4245 32.6202 16.7311 32.8602L17.2451 33.2626L17.0658 33.8903C16.9588 34.2647 17.0933 34.6545 17.4083 34.8834C17.7232 35.1121 18.1353 35.1198 18.4586 34.9021L19.0001 34.5376L19.5416 34.9021C19.8647 35.1196 20.277 35.1123 20.5919 34.8834C20.9069 34.6545 21.0414 34.2646 20.9344 33.8902L20.7551 33.2626L21.269 32.8602C21.5757 32.6203 21.6961 32.2259 21.5758 31.8555C21.4555 31.4851 21.1263 31.2368 20.7371 31.2228ZM19.9646 32.4675C19.6695 32.6985 19.5454 33.0805 19.6482 33.4409L19.7158 33.6773L19.5118 33.54C19.3564 33.4354 19.1783 33.3831 19.0001 33.3831C18.822 33.3831 18.6439 33.4354 18.4884 33.54L18.2845 33.6773L18.3521 33.4409C18.455 33.0806 18.3308 32.6985 18.0358 32.4676L17.8422 32.316L18.0878 32.3072C18.4623 32.2938 18.7873 32.0577 18.9159 31.7057L19.0001 31.4746L19.0844 31.7056C19.213 32.0577 19.538 32.2938 19.9124 32.3071L20.1581 32.316L19.9646 32.4675Z" fill="#244CC8"/>
<path d="M27.5164 31.2228L26.864 31.1994L26.6402 30.5862C26.5067 30.2205 26.1688 29.9841 25.7794 29.9841C25.39 29.9841 25.0521 30.2205 24.9185 30.5862L24.6947 31.1994L24.0423 31.2228C23.6532 31.2368 23.324 31.4851 23.2037 31.8555C23.0834 32.2258 23.2038 32.6201 23.5104 32.8602L24.0244 33.2626L23.8451 33.8903C23.7381 34.2647 23.8726 34.6545 24.1876 34.8834C24.5025 35.1121 24.9146 35.1198 25.2379 34.9021L25.7794 34.5376L26.3209 34.9021C26.644 35.1196 27.0563 35.1123 27.3713 34.8834C27.6863 34.6545 27.8207 34.2646 27.7139 33.8902L27.5345 33.2625L28.0484 32.8602C28.3551 32.6203 28.4755 32.2259 28.3551 31.8555C28.2347 31.4851 27.9055 31.2368 27.5164 31.2228ZM26.7438 32.4675C26.4487 32.6985 26.3246 33.0806 26.4275 33.4409L26.4951 33.6774L26.291 33.5401C26.1356 33.4354 25.9575 33.3832 25.7794 33.3832C25.6012 33.3832 25.423 33.4355 25.2676 33.5401L25.0636 33.6774L25.1312 33.4409C25.2341 33.0807 25.1099 32.6986 24.8149 32.4677L24.6213 32.3161L24.8669 32.3073C25.2415 32.2939 25.5665 32.0578 25.695 31.7058L25.7794 31.4747L25.8637 31.7058C25.9922 32.0578 26.3172 32.2939 26.6916 32.3073L26.9374 32.3161L26.7438 32.4675Z" fill="#244CC8"/>
<path d="M34.2957 31.2228L33.6433 31.1994L33.4195 30.5862C33.2859 30.2205 32.9481 29.9841 32.5586 29.9841C32.1692 29.9841 31.8314 30.2205 31.6978 30.5862L31.474 31.1994L30.8216 31.2228C30.4325 31.2368 30.1033 31.4851 29.983 31.8555C29.8627 32.2258 29.9831 32.6201 30.2897 32.8602L30.8036 33.2626L30.6243 33.8903C30.5173 34.2647 30.6518 34.6545 30.9668 34.8834C31.2817 35.1121 31.6938 35.1198 32.0171 34.9021L32.5586 34.5376L33.1002 34.9021C33.4233 35.1196 33.8355 35.1123 34.1506 34.8834C34.4656 34.6545 34.6 34.2646 34.4931 33.8902L34.3138 33.2625L34.8276 32.8602C35.1343 32.6203 35.2547 32.2259 35.1344 31.8555C35.0141 31.4851 34.6847 31.2368 34.2957 31.2228ZM33.5231 32.4675C33.228 32.6985 33.1039 33.0806 33.2068 33.4409L33.2744 33.6774L33.0703 33.5401C32.9149 33.4354 32.7368 33.3832 32.5586 33.3832C32.3805 33.3832 32.2023 33.4355 32.0469 33.5401L31.8429 33.6774L31.9105 33.4409C32.0134 33.0807 31.8892 32.6986 31.5942 32.4677L31.4006 32.3161L31.6462 32.3073C32.0208 32.2939 32.3458 32.0578 32.4743 31.7058L32.5586 31.4747L32.643 31.7058C32.7715 32.0578 33.0965 32.2939 33.4709 32.3073L33.7167 32.3161L33.5231 32.4675Z" fill="#244CC8"/>
</svg>
