<svg width="38" height="35" viewBox="0 0 38 35" fill="none" xmlns="http://www.w3.org/2000/svg">
<path d="M36.0028 30.9396H34.617V9.27059C34.617 8.53241 34.0164 7.93183 33.2782 7.93183H31.0263V5.00888H35.7785C36.125 5.00888 36.4313 4.81375 36.5777 4.49973C36.7241 4.18572 36.6766 3.82568 36.4539 3.56027L35.5676 2.50444L36.4539 1.4486C36.6766 1.1832 36.7241 0.82316 36.5777 0.509141C36.4313 0.195121 36.125 0 35.7785 0H30.4697C30.1622 0 29.913 0.249227 29.913 0.556641V7.93176H27.6611C26.9229 7.93176 26.3223 8.53234 26.3223 9.27052V10.4776C26.3223 10.785 26.5715 11.0343 26.8789 11.0343C27.1864 11.0343 27.4356 10.785 27.4356 10.4776V9.27059C27.4356 9.14627 27.5367 9.04511 27.6611 9.04511H33.2782C33.4025 9.04511 33.5037 9.14627 33.5037 9.27059V30.9396H27.4357V13.0938C27.4357 12.7864 27.1864 12.5372 26.879 12.5372C26.5716 12.5372 26.3224 12.7864 26.3224 13.0938V30.9396H23.1469V17.0582C23.1469 16.32 22.5463 15.7195 21.8081 15.7195H16.1909C15.4527 15.7195 14.8522 16.32 14.8522 17.0582V30.9396H11.6766V23.8926C11.6766 23.1545 11.0761 22.5539 10.3379 22.5539H4.72079C3.98261 22.5539 3.38203 23.1545 3.38203 23.8926V25.1111C3.38203 25.4185 3.63126 25.6677 3.93867 25.6677C4.24609 25.6677 4.49531 25.4185 4.49531 25.1111V23.8926C4.49531 23.7683 4.59647 23.6672 4.72079 23.6672H10.338C10.4623 23.6672 10.5634 23.7683 10.5634 23.8926V30.9396H4.49531V27.7025C4.49531 27.3951 4.24609 27.1459 3.93867 27.1459C3.63126 27.1459 3.38203 27.3951 3.38203 27.7025V30.9396H1.99622C0.895184 30.9396 -0.000488281 31.8354 -0.000488281 32.9364C-0.000488281 34.0375 0.895184 34.9331 1.99622 34.9331H36.0028C37.1038 34.9331 37.9995 34.0375 37.9995 32.9364C37.9995 31.8354 37.1038 30.9396 36.0028 30.9396ZM34.5899 3.07139L35.2818 3.89559H31.0263V1.11336H35.2818L34.5899 1.93763C34.3141 2.26612 34.3142 2.74298 34.5899 3.07139ZM15.9655 17.0582C15.9655 16.9339 16.0667 16.8327 16.191 16.8327H21.8082C21.9325 16.8327 22.0336 16.9339 22.0336 17.0582V30.9396H15.9656V17.0582H15.9655ZM36.0028 33.8198H1.99622C1.50912 33.8198 1.11279 33.4235 1.11279 32.9364C1.11279 32.4492 1.50905 32.0529 1.99622 32.0529H36.0028C36.4899 32.0529 36.8862 32.4493 36.8862 32.9364C36.8862 33.4234 36.49 33.8198 36.0028 33.8198Z" fill="#244CC8"/>
</svg>
