<svg xmlns="http://www.w3.org/2000/svg" width="52" height="52" fill="none"><path fill="#244CC8" d="M49.542 17.607L35.88 25.751a2.39 2.39 0 00-1.006 2.9 2.554 2.554 0 01-1.915.027l-1.768-.694a3.58 3.58 0 00-2.2-.14l-2.709.686a3.606 3.606 0 00-.308.092c-1.655-.944-2.64-1.227-4.386-.551l-1.568.605a2.561 2.561 0 01-2.242-.187l-.524-.308a2.39 2.39 0 00-1.132-2.43L2.458 17.608A1.625 1.625 0 000 19.004v15.251a3.02 3.02 0 001.467 2.582l5.965 3.556a2.383 2.383 0 003.227-.76l.255.15-.774 1.078a2.679 2.679 0 002.645 4.202 2.664 2.664 0 001.087 1.776 2.672 2.672 0 002.03.46 2.679 2.679 0 003.756 2.042 2.684 2.684 0 004.605.77l2.004 1.187a2.682 2.682 0 004.037-2.07l.078.047a2.663 2.663 0 002.031.29 2.663 2.663 0 001.642-1.23c.226-.381.351-.802.372-1.232.447.125.92.13 1.382.012a2.663 2.663 0 001.641-1.23c.213-.358.336-.752.368-1.156a2.685 2.685 0 003.35-1.103 2.685 2.685 0 00-.297-3.14l.785-.46a2.384 2.384 0 002.912.367l1.442-.86a.762.762 0 10-.78-1.309l-1.442.86a.86.86 0 01-1.02-.103c-.006-.043-6.409-10.743-6.409-10.743a.862.862 0 01.3-1.178l13.663-8.144a.102.102 0 01.155.087v15.252c0 .52-.278 1.008-.724 1.273l-1.44.859a.762.762 0 10.78 1.308l1.44-.858A3.019 3.019 0 0052 34.255V19.004a1.625 1.625 0 00-2.458-1.397zm-20.18 11.714a2.07 2.07 0 011.271.08l1.771.696a4.07 4.07 0 003.22-.112l5.194 8.767-.842.492c-.153.09-.3.191-.44.3L28.43 32.966a.762.762 0 00-1.15.656v.153c0 .542-.211 1.051-.595 1.434a2.014 2.014 0 01-1.433.594.17.17 0 01-.165-.166v-3.615c0-.788.44-1.49 1.115-1.843a.76.76 0 00.098-.047c.113-.052.232-.094.356-.126l2.708-.685zM8.866 39.179a.855.855 0 01-.653-.095l-5.965-3.556a1.489 1.489 0 01-.724-1.273v-15.25c0-.017 0-.06.052-.09a.103.103 0 01.052-.014c.024 0 .042.01.05.016l13.664 8.144c.407.242.541.77.3 1.178L9.393 38.784a.855.855 0 01-.528.395zm3.64 4.387a1.15 1.15 0 01-.862-.202 1.15 1.15 0 01-.467-.752 1.15 1.15 0 01.202-.862l1.087-1.514a1.144 1.144 0 01.149-.17 1.158 1.158 0 011.73 1.52l-.002.002-1.085 1.51a1.15 1.15 0 01-.752.468zM14.76 45.6a1.15 1.15 0 01-.467-.752c-.05-.305.022-.61.202-.862l1.087-1.514 1.2-1.67a1.149 1.149 0 01.941-.483 1.158 1.158 0 01.937 1.832l-2.286 3.185a1.158 1.158 0 01-1.614.264zm3.98 2.44a1.158 1.158 0 01-1.127-1.816v-.003l2.285-3.182a1.158 1.158 0 012.082.488 1.15 1.15 0 01-.202.862l-2.286 3.184a1.15 1.15 0 01-.753.467zm2.764 1.325a1.15 1.15 0 01-.467-.752 1.149 1.149 0 01.204-.865l.76-1.057a1.158 1.158 0 011.613-.264c.518.372.637 1.096.265 1.615l-.435.605a.49.49 0 00-.013.019l-.313.435a1.158 1.158 0 01-1.614.264zm18.353-6.517a1.159 1.159 0 01-1.586.406l-1.76-1.043-.003-.001-5.454-3.231a.762.762 0 00-.777 1.31l5.457 3.233a1.159 1.159 0 01-.303 2.117 1.15 1.15 0 01-.877-.126l-1.436-.85-.003-.002-.002-.002-4.018-2.38a.762.762 0 10-.777 1.31l4.018 2.381.003.002c.266.157.454.409.531.708.077.3.032.611-.125.877a1.15 1.15 0 01-.71.532 1.15 1.15 0 01-.876-.126l-2.154-1.276-.005-.003-1.575-.933a.762.762 0 00-.776 1.31l1.575.934.002.001a1.159 1.159 0 01-1.182 1.99l-1.885-1.116a2.684 2.684 0 00-1.833-4.155c.182-.45.238-.943.157-1.435a2.663 2.663 0 00-1.082-1.743 2.673 2.673 0 00-2.03-.46 2.672 2.672 0 00-1.087-1.778 2.663 2.663 0 00-1.997-.467c-.59.096-1.12.38-1.52.81a2.685 2.685 0 00-3.79-1.001l-.54-.319 5.183-8.748.382.226a4.082 4.082 0 003.567.297l1.567-.606c.937-.362 1.44-.38 2.386.08a3.597 3.597 0 00-.96 2.45v3.615c0 .93.757 1.688 1.687 1.69h.003a3.53 3.53 0 002.51-1.04c.407-.407.703-.895.873-1.428l10.61 6.283c.035.02.07.038.108.053.03.025.063.048.098.07.549.324.73 1.035.406 1.584z"/><path fill="#244CC8" d="M17.268 20.175h17.464a2.87 2.87 0 002.867-2.867V6.918a2.87 2.87 0 00-2.867-2.867h-4.204V2.844A2.518 2.518 0 0028.012.328h-4.024a2.518 2.518 0 00-2.516 2.516V4.05h-4.204a2.87 2.87 0 00-2.867 2.867v5.724a.762.762 0 101.523 0v-1.416a4.56 4.56 0 003.054 1.17h.596v.838a.762.762 0 101.524 0v-.837h9.804v.837a.762.762 0 101.523 0v-.837h.597a4.559 4.559 0 003.053-1.171v6.082c0 .741-.603 1.344-1.344 1.344H17.268a1.346 1.346 0 01-1.344-1.344v-1.105a.762.762 0 10-1.523 0v1.105a2.87 2.87 0 002.867 2.867zm5.728-17.331c0-.548.445-.993.992-.993h4.025c.547 0 .992.445.992.993V4.05h-6.01V2.844zm10.026 8.03h-.596v-.839a.762.762 0 10-1.524 0v.838h-9.804v-.838a.762.762 0 10-1.523 0v.838h-.596a3.057 3.057 0 01-3.054-3.054v-.9c0-.742.602-1.345 1.344-1.345h17.463c.74 0 1.344.603 1.344 1.344v.901a3.057 3.057 0 01-3.054 3.054z"/></svg>