<svg xmlns="http://www.w3.org/2000/svg" width="48" height="48" fill="none"><path fill="#244CC8" d="M11.254 9.292c0-.787-.64-1.427-1.427-1.427H6.8c-.787 0-1.427.64-1.427 1.427v3.026c0 .787.64 1.428 1.427 1.428h3.027c.787 0 1.427-.64 1.427-1.428V9.292zm-1.406 3.026c0 .012-.01.021-.021.021H6.8a.021.021 0 01-.02-.02V9.291a.02.02 0 01.02-.021h3.027c.011 0 .02.01.02.02v3.027zm8.93-3.026c0-.787-.64-1.427-1.427-1.427h-3.026c-.787 0-1.427.64-1.427 1.427v3.026c0 .787.64 1.428 1.427 1.428h3.026c.787 0 1.427-.64 1.427-1.428V9.292zm-1.406 3.026a.02.02 0 01-.02.021h-3.027a.021.021 0 01-.021-.02V9.291a.02.02 0 01.02-.021h3.027a.02.02 0 01.021.02v3.027zm-6.118 4.75c0-.787-.64-1.427-1.427-1.427H6.8c-.787 0-1.427.64-1.427 1.427v3.027c0 .787.64 1.427 1.427 1.427h3.027c.787 0 1.427-.64 1.427-1.427v-3.027zm-1.406 3.027c0 .011-.01.02-.021.02H6.8a.021.021 0 01-.02-.02v-3.027a.02.02 0 01.02-.02h3.027a.02.02 0 01.02.02v3.027zm8.93-3.027c0-.787-.64-1.427-1.427-1.427h-3.026c-.787 0-1.427.64-1.427 1.427v3.027c0 .787.64 1.427 1.427 1.427h3.026c.787 0 1.427-.64 1.427-1.427v-3.027zm-1.406 3.027a.02.02 0 01-.02.02h-3.027a.021.021 0 01-.021-.02v-3.027a.02.02 0 01.02-.02h3.027a.02.02 0 01.021.02v3.027zm-7.545 3.322H6.8c-.787 0-1.427.64-1.427 1.427v3.027c0 .787.64 1.427 1.427 1.427h3.027c.787 0 1.427-.64 1.427-1.427v-3.027c0-.787-.64-1.427-1.427-1.427zm.02 4.454a.02.02 0 01-.02.02H6.8a.021.021 0 01-.02-.02v-3.027a.02.02 0 01.02-.02h3.027a.02.02 0 01.02.02v3.027zm7.504-4.454h-3.026c-.787 0-1.427.64-1.427 1.427v3.027c0 .787.64 1.427 1.427 1.427h3.026c.787 0 1.427-.64 1.427-1.427v-3.027c0-.787-.64-1.427-1.427-1.427zm.021 4.454a.02.02 0 01-.02.02h-3.027a.021.021 0 01-.021-.02v-3.027a.02.02 0 01.02-.02h3.027a.02.02 0 01.021.02v3.027z"/><path fill="#244CC8" d="M45.763 43.53H44.72v-5.942a5.399 5.399 0 00-3.857-5.152l-4.258-1.25a1.477 1.477 0 00-.41-.273l-.884-.393a1.779 1.779 0 00-.78-.153v-1.983a6.37 6.37 0 002.585-4.41 1.593 1.593 0 001.208-1.544v-5.595a2.39 2.39 0 00-2.314-2.386 2.39 2.39 0 00-2.384-2.255h-5.805c-.535 0-1.048.093-1.525.262.004-.045.007-.091.007-.138V9.292c0-.787-.64-1.427-1.428-1.427H21.85c-.787 0-1.427.64-1.427 1.427v3.026c0 .787.64 1.427 1.427 1.427h2.54a4.574 4.574 0 00-1.006 1.896H21.85c-.787 0-1.427.64-1.427 1.427v3.027c0 .787.64 1.427 1.427 1.427h1.392v.909c0 .372.129.715.344.986H21.85c-.787 0-1.427.64-1.427 1.428v3.026c0 .787.64 1.427 1.427 1.427h3.026c.787 0 1.427-.64 1.427-1.427v-.108c.229.225.473.433.733.622v1.978a1.776 1.776 0 00-.772.155l-.867.39c-.15.067-.288.16-.407.271l-4.284 1.258a5.399 5.399 0 00-3.857 5.152v.477a.703.703 0 101.406 0v-.477a3.984 3.984 0 012.847-3.803l3.508-1.03c.072.2.187.386.346.545l2.402 2.405.007.007a1.528 1.528 0 001.338.411l.499.856-1.16 6.55h-5.387v-1.528a.703.703 0 10-1.406 0v1.527h-2.994v-2.176a.703.703 0 10-1.406 0v2.176h-2.926v-8.204h.088a.703.703 0 000-1.406H5.546a.703.703 0 000 1.406h.088v8.204H3.088V6.713c0-.586.476-1.062 1.062-1.062h23.377c.585 0 1.061.476 1.061 1.062v2.85a.703.703 0 101.406 0v-2.85a2.47 2.47 0 00-2.152-2.447V1.73c0-.954-.776-1.73-1.73-1.73H5.564c-.954 0-1.73.776-1.73 1.73v2.536a2.471 2.471 0 00-2.152 2.447v36.886a2.24 2.24 0 00-1.68 2.166A2.238 2.238 0 002.238 48h43.525A2.238 2.238 0 0048 45.764a2.238 2.238 0 00-2.236-2.235zM5.564 1.405h20.548c.179 0 .324.145.324.324v2.515H5.24V1.73c0-.179.145-.324.323-.324zm37.75 36.182v5.941h-2.996v-1.527a.703.703 0 00-1.406 0v1.527h-5.384l-1.162-6.556.505-.906a1.524 1.524 0 001.35-.404l2.404-2.34c.165-.16.285-.353.358-.56l3.484 1.022a3.985 3.985 0 012.846 3.803zm-12.971-1.442l-.443-.76.943-.788.838.717-.464.831h-.874zm4.396-4.342l.884.394c.045.02.058.081.02.118l-2.399 2.336a.126.126 0 01-.17.005l-1.113-.952 2.396-1.855a.374.374 0 01.382-.046zM33.626 13.6c.542 0 .982.44.982.982 0 .701.57 1.272 1.272 1.272h.056c.542 0 .982.44.982.981v2.976h-.461a.47.47 0 01-.47-.47V18.7a1.942 1.942 0 00-2.549-1.842 8.52 8.52 0 01-5.312 0 1.94 1.94 0 00-2.549 1.842v.642a.47.47 0 01-.469.469h-.46v-3.037A3.178 3.178 0 0127.82 13.6h5.805zm-11.798-1.282V9.292c0-.012.01-.021.021-.021h3.027c.011 0 .02.01.02.02v3.027a.02.02 0 01-.02.021h-3.027a.021.021 0 01-.02-.02zm0 7.777v-3.027c0-.012.01-.02.021-.02h1.392v3.068H21.85a.021.021 0 01-.02-.021zm3.069 7.776a.02.02 0 01-.021.02h-3.027a.021.021 0 01-.02-.02v-3.026a.02.02 0 01.02-.021h2.76c.075.295.172.582.287.86v2.187zm.926-4.323a.997.997 0 00-.992-.934.184.184 0 01-.184-.184v-1.213h.461a1.877 1.877 0 001.876-1.875V18.7c0-.36.351-.623.704-.507a9.93 9.93 0 006.192 0 .534.534 0 01.702.507v.642c0 1.034.841 1.875 1.875 1.875h.461v1.213a.184.184 0 01-.184.184.997.997 0 00-.991.934 4.977 4.977 0 01-4.96 4.654 4.977 4.977 0 01-4.96-4.654zm4.96 6.06a6.34 6.34 0 002.341-.448v1.866l-2.284 1.769-2.399-1.793v-1.841a6.34 6.34 0 002.342.447zm-4.833 2.699a.073.073 0 01.022-.117l.867-.39a.375.375 0 01.377.042l2.498 1.867-1.2 1.003a.126.126 0 01-.167-.005l-2.397-2.4zm4.578 5.245h.512l1.06 5.977h-2.632l1.06-5.977zM7.04 35.326h5.476v8.204H7.04v-8.204zm38.723 11.269H2.238a.83.83 0 010-1.659h43.525a.83.83 0 010 1.659z"/></svg>