<svg xmlns="http://www.w3.org/2000/svg" width="38" height="34" fill="none"><path fill="#244CC8" d="M36.522 28.524h-1.059V11.015a2.095 2.095 0 00-2.093-2.092h-1.346a.557.557 0 000 1.113h1.346c.54 0 .98.44.98.98v17.508h-1.856V13.468c0-.87-.707-1.576-1.576-1.576h-.945V1.542C29.973.692 29.28 0 28.43 0H9.57c-.85 0-1.542.692-1.542 1.542v10.35h-.945c-.87 0-1.576.707-1.576 1.576v15.056H3.65V11.015c0-.54.44-.979.98-.979h1.35a.557.557 0 100-1.113H4.63a2.095 2.095 0 00-2.092 2.092v17.509h-1.06A1.48 1.48 0 000 30.002a3.87 3.87 0 003.867 3.866h30.266A3.871 3.871 0 0038 30.002a1.48 1.48 0 00-1.478-1.478zm-5.604-15.52c.255 0 .463.208.463.464v15.056h-1.408v-15.52h.945zM9.568 1.115h18.863a.43.43 0 01.429.428V3.68H12.814a.557.557 0 100 1.114H28.86v23.73H9.14V4.794h1.04a.557.557 0 100-1.114H9.14V1.542a.43.43 0 01.429-.429zM23.96 29.636a1.56 1.56 0 01-1.455 1.002h-7.009a1.56 1.56 0 01-1.454-1.002h9.918zM6.62 13.466c0-.255.208-.462.463-.462h.945v15.519H6.619V13.468zm27.514 19.288H3.867a2.756 2.756 0 01-2.754-2.753c0-.201.164-.365.365-.365h11.404a2.677 2.677 0 002.614 2.116h7.009a2.677 2.677 0 002.613-2.116h11.404c.201 0 .365.164.365.365a2.757 2.757 0 01-2.754 2.753z"/></svg>