<svg width="32" height="36" fill="none" xmlns="http://www.w3.org/2000/svg"><path d="M30.747 18.434h-2.255c-.674 0-1.222.549-1.222 1.223v1.218c0 .636.488 1.16 1.109 1.217v.607a.794.794 0 01-.793.793h-.662v-.704a2.883 2.883 0 00-2.88-2.88h-.628a5.482 5.482 0 002.113-3.57l1.128-7.531a.524.524 0 00-1.036-.155l-1.128 7.53a4.443 4.443 0 01-1.177 2.414v-6.014a1.848 1.848 0 00-1.846-1.847h-2.596v-.713c0-.896-.729-1.625-1.625-1.625h-2.528c-.896 0-1.626.729-1.626 1.625v.713H10.5a1.848 1.848 0 00-1.847 1.847v6.014a4.444 4.444 0 01-1.177-2.413L5.978 6.177a4.47 4.47 0 014.42-5.13h11.175a4.47 4.47 0 014.419 5.13.523.523 0 101.035.155C27.527 2.997 24.941 0 21.573 0H10.397C7.025 0 4.444 3.001 4.943 6.332L6.44 16.338a5.483 5.483 0 002.113 3.57h-.629a2.883 2.883 0 00-2.88 2.88v.703h-.661a.794.794 0 01-.793-.793v-.606a1.224 1.224 0 001.11-1.217v-1.219c0-.673-.55-1.222-1.223-1.222H1.223c-.674 0-1.223.549-1.223 1.222a2.444 2.444 0 002.442 2.442h.102v.6c0 1.015.825 1.84 1.84 1.84h3.57a.524.524 0 000-1.047H6.091v-.703c0-1.011.823-1.833 1.833-1.833h16.12c1.01 0 1.832.822 1.832 1.833v.703H10.401a.524.524 0 100 1.048h3.99v3.84h-.058c-.982 0-1.78.799-1.78 1.78v.361h-.584a2.928 2.928 0 00-2.695 1.786h-.657c-.919 0-1.666.748-1.666 1.666 0 .919.747 1.666 1.666 1.666h1.061c.919 0 1.666-.747 1.666-1.666 0-.67-.399-1.25-.972-1.514a1.88 1.88 0 011.597-.89h8.032a1.88 1.88 0 011.597.89 1.668 1.668 0 00-.972 1.514c0 .919.747 1.666 1.666 1.666h1.061a1.667 1.667 0 00.001-3.332h-.658A2.928 2.928 0 0020 30.52h-.584v-.36c0-.982-.798-1.78-1.78-1.78h-.058v-3.841h10.007c1.015 0 1.84-.826 1.84-1.84v-.602h.102a2.444 2.444 0 002.441-2.44c0-.674-.548-1.223-1.222-1.223zM2.442 21.05a1.395 1.395 0 01-1.394-1.393c0-.097.078-.175.175-.175h2.255c.096 0 .175.078.175.175v1.218a.175.175 0 01-.175.176H2.442zm11.7-11.028a.58.58 0 01.579-.578h2.528c.319 0 .578.26.578.578v.713h-3.684v-.713zm8.127 9.087a.8.8 0 01-.799.799H10.5a.8.8 0 01-.8-.8v-3.722a2.907 2.907 0 001.874.682h.33v.482a.524.524 0 101.047 0v-.482h6.068v.482a.524.524 0 101.048 0v-.482h.329c.712 0 1.366-.257 1.873-.682v3.723zm0-5.961c0 1.033-.84 1.873-1.873 1.873h-.33v-.481a.524.524 0 10-1.047 0v.481h-6.068v-.481a.524.524 0 10-1.048 0v.481h-.33a1.876 1.876 0 01-1.872-1.873v-.566a.8.8 0 01.799-.8h10.97a.8.8 0 01.8.8v.566zM9.68 34.59H8.615a.62.62 0 010-1.237h1.062a.62.62 0 010 1.237zm12.613-1.237h1.061a.62.62 0 010 1.237h-1.062a.62.62 0 010-1.237zm-6.854-8.815h1.094v3.84h-1.094v-3.84zm2.199 4.888c.404 0 .733.329.733.733v.36H13.6v-.36c0-.404.329-.733.733-.733h3.304zm11.891-8.377h-1.036a.175.175 0 01-.175-.175v-1.218c0-.097.078-.175.175-.175h2.255c.097 0 .175.078.175.175 0 .768-.625 1.393-1.394 1.393z" fill="#244CC8"/></svg>