<svg xmlns="http://www.w3.org/2000/svg" width="38" height="38" fill="none"><path fill="#244CC8" d="M37.443 28.24a.556.556 0 00.557-.556V8.056c0-.703-.274-1.364-.771-1.862L31.806.771A2.616 2.616 0 0029.944 0H12.098a2.636 2.636 0 00-2.633 2.633V22.38a4.769 4.769 0 00-3.215 1.8l-.82 1.04a2.077 2.077 0 01-.862.642 2.296 2.296 0 00-2.275-2.009A2.296 2.296 0 000 26.146v9.545a2.296 2.296 0 002.293 2.293 2.297 2.297 0 002.2-1.643c.256.014.64-.057 1.153.148.947.303 2.841 1.495 5.944 1.495h3.229c.939 0 1.703-.764 1.703-1.703v-.31h18.845A2.636 2.636 0 0038 33.338v-3.026a.556.556 0 10-1.113 0v3.026c0 .838-.682 1.52-1.52 1.52H16.376a1.73 1.73 0 00-.043-.089c.548-.283.923-.855.923-1.514v-.733c0-.307-.081-.595-.224-.844.485-.3.808-.838.808-1.448v-.734a1.69 1.69 0 00-.279-.933 1.7 1.7 0 00.68-1.36v-.732c0-.94-.765-1.704-1.703-1.704h-5.5a.46.46 0 01-.46-.46V2.634c0-.839.682-1.52 1.52-1.52h17.846c.103 0 .204.01.303.03v4.765c0 1.017.828 1.844 1.844 1.844h4.765c.02.099.03.2.03.303v19.628c0 .308.25.557.557.557zm-35.15 8.631c-.65 0-1.18-.53-1.18-1.18v-9.545a1.18 1.18 0 012.36 0v9.545c0 .65-.529 1.18-1.18 1.18zm8.745-10.991h5.5a.59.59 0 01.589.59v.734a.59.59 0 01-.59.59h-.4l-4.805-.001a.557.557 0 000 1.113h4.805a.59.59 0 01.59.59v.734a.59.59 0 01-.59.59h-.584l-4.814-.001a.557.557 0 100 1.113h4.814a.59.59 0 01.59.59v.733a.59.59 0 01-.59.59h-.734l-4.828-.001a.557.557 0 000 1.113l4.827.001a.59.59 0 01.59.59v.733a.59.59 0 01-.59.59H11.59c-2.831 0-4.485-1.078-5.532-1.417-.727-.29-1.291-.214-1.471-.226v-8.205a3.198 3.198 0 001.718-1.115l.82-1.041a3.663 3.663 0 012.34-1.365v.804c0 .868.706 1.573 1.573 1.574zM31.36 5.909V1.9l4.74 4.74h-4.01a.732.732 0 01-.73-.731z"/></svg>