<svg xmlns="http://www.w3.org/2000/svg" width="38" height="35" fill="none"><path fill="#244CC8" d="M36.003 30.94h-1.386V9.27c0-.738-.6-1.338-1.339-1.338h-2.252V5.009h4.753a.874.874 0 00.799-.51.874.874 0 00-.124-.939l-.886-1.056.886-1.055a.874.874 0 00.124-.94.874.874 0 00-.8-.509H30.47a.557.557 0 00-.557.557v7.375h-2.252c-.738 0-1.339.6-1.339 1.339v1.207a.557.557 0 101.114 0V9.27c0-.125.1-.226.225-.226h5.617c.125 0 .226.101.226.226v21.67h-6.068V13.094a.557.557 0 00-1.114 0V30.94h-3.175V17.058c0-.738-.6-1.338-1.339-1.338h-5.617c-.738 0-1.339.6-1.339 1.338V30.94h-3.175v-7.047c0-.739-.6-1.34-1.34-1.34H4.722c-.738 0-1.339.601-1.339 1.34v1.218a.557.557 0 001.113 0v-1.218c0-.125.101-.226.226-.226h5.617c.124 0 .225.101.225.226v7.047H4.495v-3.238a.557.557 0 00-1.113 0v3.238H1.996A1.999 1.999 0 000 32.936c0 1.102.895 1.997 1.996 1.997h34.007a1.999 1.999 0 001.996-1.997 1.999 1.999 0 00-1.996-1.996zM34.59 3.07l.692.825h-4.256V1.113h4.256l-.692.825a.88.88 0 000 1.133zM15.965 17.058c0-.124.102-.225.226-.225h5.617c.125 0 .226.1.226.225V30.94h-6.068V17.058zM36.004 33.82H1.996a.884.884 0 010-1.767h34.007a.884.884 0 010 1.767z"/></svg>