<svg width="38" height="39" fill="none" xmlns="http://www.w3.org/2000/svg"><path d="M36.037 26.97H33.01v-.925a.557.557 0 10-1.113 0v.925H26.75c.374-.571.598-1.087.68-1.562.112-.656-.105-1.342-.613-1.948 1.037-.756 1.563-1.45 1.563-2.066 0-.316-.068-.647-.2-.986l1.235.39a3.552 3.552 0 012.423 2.735.557.557 0 001.094-.206 4.664 4.664 0 00-3.181-3.59l-2.786-.882c-.948-.675-1.829-.635-2.198-.716l-.786-.686a1.707 1.707 0 00-1.328-.41v-1.476a6.103 6.103 0 002.426-4.276A1.427 1.427 0 0026.25 9.89V4.412c0-1.217-.99-2.206-2.206-2.206h-.056A2.207 2.207 0 0021.783 0H16.1A4.36 4.36 0 0012 2.893a.557.557 0 101.048.373A3.245 3.245 0 0116.1 1.113h5.683c.602 0 1.092.49 1.092 1.093 0 .614.5 1.113 1.114 1.113h.055c.603 0 1.093.49 1.093 1.093v3.044h-.583a.592.592 0 01-.59-.591v-.628a1.767 1.767 0 00-2.323-1.679 8.47 8.47 0 01-5.28 0l-.008-.001a1.767 1.767 0 00-2.317 1.68v.628a.59.59 0 01-.591.59h-.583V5.683a.557.557 0 00-1.113 0V9.89c0 .699.506 1.282 1.172 1.402a6.104 6.104 0 002.426 4.276v1.476a1.708 1.708 0 00-1.326.41l-.796.694c-.157.04-.692.077-1.345.441l-3.629 1.15A4.654 4.654 0 004.99 24.19v2.779H1.964A1.967 1.967 0 000 28.933v7.105c0 1.083.881 1.964 1.964 1.964h34.073A1.966 1.966 0 0038 36.038v-7.105a1.966 1.966 0 00-1.964-1.963zm-10.95-7.662c.094.023.64.023 1.294.5.316.24.564.554.72.907.11.247.164.475.164.679 0 .101-.226.55-1.233 1.258a.95.95 0 00-.394.678c-.03.279.06.554.246.756.247.267.525.68.447 1.134-.056.325-.27.887-.958 1.75h-2.74c1.556-3.135 2.379-5.706 2.453-7.662zm-3.692 7.646l-.906-3.422.503-.594a1.485 1.485 0 001.453-.57l1.387-1.848c-.315 1.722-1.13 3.876-2.437 6.434zm1.853-8.661l.522.454-2.215 2.953a.371.371 0 01-.54.059l-1.18-1.02c3.571-3.324 2.41-2.236 2.645-2.462a.597.597 0 01.768.016zm-3.232 4.074l-.397.47h-1.24l-.403-.462L19 21.489l1.016.878zM16.46 17.63v-1.4a6.074 6.074 0 002.54.554 6.07 6.07 0 002.538-.554v1.402L19 19.994l-2.54-2.365zm2.113 6.321h.875l.8 3.02h-2.346l.671-3.02zm-4.56-12.959a.844.844 0 00-.84-.79.312.312 0 01-.311-.312V8.57h.583c.94 0 1.704-.764 1.704-1.704v-.628a.654.654 0 01.866-.62 9.592 9.592 0 005.975-.001c.424-.14.86.174.86.621v.628c0 .94.764 1.704 1.704 1.704h.583v1.32c0 .172-.14.311-.312.311a.844.844 0 00-.84.792A5.004 5.004 0 0119 15.67a5.004 5.004 0 01-4.986-4.679zm.74 7.302a.597.597 0 01.765-.017c.068.065 2.636 2.451 2.648 2.462l-1.18 1.02a.368.368 0 01-.54-.058l-2.215-2.953.521-.454zm.802 4.075c.325.434.877.669 1.437.573l.53.607-.714 3.212c-1.387-2.501-2.248-4.548-2.6-6.19l1.347 1.798zm-4.082-1.848a2.42 2.42 0 011.447-1.17c.102 1.931 1.002 4.439 2.733 7.62h-2.546c-.688-.863-.902-1.425-.958-1.75-.078-.454.2-.867.446-1.134a.961.961 0 00.247-.756.95.95 0 00-.395-.678c-1.006-.707-1.233-1.157-1.233-1.258 0-.257.088-.551.26-.874zm-5.37 3.671c0-1.559.998-2.922 2.484-3.392l1.788-.566a2.826 2.826 0 00-.274 1.16c0 .617.526 1.311 1.563 2.067-.508.606-.725 1.292-.612 1.948.081.475.305.99.678 1.562H6.103V24.19zm30.784 11.847a.85.85 0 01-.85.85H1.964a.851.851 0 01-.85-.85v-7.105a.85.85 0 01.85-.85h34.073a.85.85 0 01.85.85v7.105z" fill="#244CC8"/><path d="M7.178 31.223l-.652-.024-.224-.613a.908.908 0 00-.861-.602.908.908 0 00-.86.602l-.225.613-.652.024a.908.908 0 00-.839.633c-.12.37 0 .764.307 1.004l.514.403-.18.627a.908.908 0 00.343.993.908.908 0 001.05.02l.542-.365.542.364a.914.914 0 001.05-.019.908.908 0 00.342-.993l-.179-.627.514-.403a.908.908 0 00.307-1.005.908.908 0 00-.839-.632zm-.773 1.245a.913.913 0 00-.316.973l.068.236-.204-.137a.913.913 0 00-1.024 0l-.204.137.068-.236a.913.913 0 00-.316-.974l-.194-.151.246-.009c.374-.013.7-.25.828-.601l.084-.231.084.23a.912.912 0 00.828.602l.246.009-.194.151zm7.553-1.245l-.652-.024-.224-.613a.908.908 0 00-.861-.602.908.908 0 00-.861.602l-.224.613-.652.024a.908.908 0 00-.839.633c-.12.37 0 .764.307 1.004l.514.403-.18.627a.908.908 0 00.343.993.908.908 0 001.05.02l.542-.365.541.364a.908.908 0 001.05-.019.908.908 0 00.343-.993l-.18-.627.515-.403a.908.908 0 00.306-1.005.908.908 0 00-.838-.632zm-.773 1.245a.913.913 0 00-.316.973l.068.236-.204-.137a.913.913 0 00-1.024 0l-.204.137.068-.236a.913.913 0 00-.317-.974l-.193-.151.245-.009c.375-.013.7-.25.829-.601l.084-.231.084.23a.913.913 0 00.828.602l.246.009-.194.151zm7.552-1.245l-.652-.024-.224-.613a.908.908 0 00-.86-.602.908.908 0 00-.862.602l-.223.613-.653.024a.908.908 0 00-.839.633c-.12.37 0 .764.307 1.004l.514.403-.18.627a.908.908 0 00.343.993.908.908 0 001.05.02l.542-.365.542.364a.908.908 0 001.05-.019.908.908 0 00.342-.993l-.179-.627.514-.403a.908.908 0 00.307-1.005.908.908 0 00-.839-.632zm-.772 1.245a.913.913 0 00-.317.973l.068.236-.204-.137a.915.915 0 00-1.024 0l-.203.137.067-.236a.913.913 0 00-.316-.973l-.194-.152.246-.009c.374-.013.7-.25.828-.601l.084-.231.084.23a.913.913 0 00.828.602l.246.009-.193.151zm7.551-1.245l-.652-.024-.224-.613a.908.908 0 00-.86-.602.908.908 0 00-.861.602l-.224.613-.653.024a.908.908 0 00-.838.633c-.12.37 0 .764.306 1.004l.514.403-.179.627a.908.908 0 00.343.993.908.908 0 001.05.02l.541-.365.542.364a.908.908 0 001.05-.019.908.908 0 00.343-.993l-.18-.627.514-.403a.907.907 0 00.307-1.005.908.908 0 00-.839-.632zm-.772 1.245a.913.913 0 00-.317.973l.068.236-.204-.137a.914.914 0 00-1.023 0l-.204.137.067-.236a.913.913 0 00-.316-.973l-.194-.152.246-.009c.374-.013.7-.25.828-.601l.084-.231.085.23a.913.913 0 00.828.602l.245.01-.193.15zm7.552-1.245l-.653-.024-.224-.613a.908.908 0 00-.86-.602.908.908 0 00-.861.602l-.224.613-.652.024a.908.908 0 00-.839.633c-.12.37 0 .764.307 1.004l.514.403-.18.627a.908.908 0 00.343.993.908.908 0 001.05.02l.542-.365.541.364a.908.908 0 001.05-.019.908.908 0 00.343-.993l-.18-.627.515-.403a.908.908 0 00.306-1.005.908.908 0 00-.838-.632zm-.773 1.245a.913.913 0 00-.316.973l.067.236-.204-.137a.914.914 0 00-1.023 0l-.204.137.067-.236a.913.913 0 00-.316-.973l-.193-.152.245-.009c.375-.013.7-.25.828-.601l.085-.231.084.23a.913.913 0 00.828.602l.246.01-.194.15z" fill="#244CC8"/></svg>