<svg width="38" height="34" fill="none" xmlns="http://www.w3.org/2000/svg"><path d="M35.296 11.888a9.402 9.402 0 00-.206-.2V9.55a3.862 3.862 0 00-3.858-3.857h-6.766v-1.94A3.758 3.758 0 0020.713 0h-6.336a3.758 3.758 0 00-3.753 3.753v1.939H3.857A3.862 3.862 0 000 9.549V26.72a3.862 3.862 0 003.857 3.858h8.054a.557.557 0 000-1.114H3.857a2.747 2.747 0 01-2.744-2.744V15.49a6.541 6.541 0 004.937 2.875v2.027c0 1.157.941 2.099 2.099 2.099a2.102 2.102 0 002.099-2.1v-2.008h9.302v.027a9.16 9.16 0 001.623 5.23l-1.182 1.182a1.223 1.223 0 00-1.199.31l-4.539 4.54a2.303 2.303 0 103.259 3.259l4.54-4.54c.323-.324.427-.786.31-1.199l1.183-1.183a9.247 9.247 0 0010.432.018v.693a2.747 2.747 0 01-2.744 2.744H22.44a.557.557 0 000 1.114h8.792a3.862 3.862 0 003.858-3.858v-1.589a9.22 9.22 0 00.206-13.244zm-23.56-8.135a2.643 2.643 0 012.64-2.64h6.336a2.643 2.643 0 012.64 2.64v1.939h-1.187V3.753c0-.8-.651-1.452-1.453-1.452h-6.335c-.801 0-1.453.651-1.453 1.452v1.939h-1.187V3.753zm2.301 1.939V3.753a.34.34 0 01.34-.34h6.335a.34.34 0 01.34.34v1.939h-7.015zM9.135 18.681H7.163v-1.874a.987.987 0 011.972 0v1.874zm-.986 2.697a.987.987 0 01-.986-.986v-.598h1.972v.598a.987.987 0 01-.986.986zm2.099-4.108v-.463c0-1.157-.942-2.1-2.1-2.1a2.101 2.101 0 00-2.098 2.1v.44a5.431 5.431 0 01-4.937-5.402V9.55a2.747 2.747 0 012.744-2.744h27.375a2.747 2.747 0 012.745 2.745v1.241c-3.52-2.415-8.478-2.151-11.726 1.096a9.154 9.154 0 00-2.632 5.383h-9.371zm6.477 14.873a1.19 1.19 0 11-1.685-1.684l3.145-3.145 1.684 1.685-3.144 3.144zm4.539-4.539l-.607.607-1.685-1.684.607-.608a.11.11 0 01.155 0l1.53 1.53a.11.11 0 010 .155zm.42-1.309l-.796-.796.977-.977a9.36 9.36 0 00.797.796l-.978.977zm1.354-2.15a8.057 8.057 0 01-2.375-5.735c0-2.166.843-4.203 2.375-5.735a8.106 8.106 0 0111.47 0 8.106 8.106 0 010 11.47 8.106 8.106 0 01-11.47 0z" fill="#244CC8"/><path d="M34.88 19.174a.556.556 0 00-.662.426 5.551 5.551 0 01-1.504 2.75 5.57 5.57 0 01-7.88 0 5.579 5.579 0 010-7.88 5.57 5.57 0 017.88 0 5.553 5.553 0 011.503 2.747.556.556 0 101.088-.237 6.664 6.664 0 00-1.804-3.297 6.682 6.682 0 00-9.455 0 6.693 6.693 0 000 9.454 6.693 6.693 0 009.455 0 6.663 6.663 0 001.805-3.3.557.557 0 00-.426-.663z" fill="#244CC8"/></svg>